<svg width="370" height="317" viewBox="0 0 370 317" fill="none" xmlns="http://www.w3.org/2000/svg">
<path d="M54.1276 288.968C126.33 326.34 243.382 326.348 315.627 288.968C387.871 251.589 387.821 191.001 315.627 153.629C243.433 116.257 126.372 116.257 54.1697 153.629C-18.0327 191.001 -18.0664 251.597 54.1276 288.968Z" fill="#F5F5F5"/>
<path d="M307.446 175.339C296.229 180.013 278.016 180.013 266.808 175.339C255.6 170.665 255.583 163.08 266.808 158.435C278.033 153.79 296.237 153.761 307.446 158.435C318.654 163.109 318.671 170.657 307.446 175.339Z" fill="#E0E0E0"/>
<path d="M339.17 216.349L333.511 213.519C333.511 213.519 330.796 200.437 332.822 189.185C335.681 173.369 347.999 167.916 352.472 169.489C356.945 171.062 358.005 175.743 349.95 184.878C345.157 190.273 339.002 201.672 339.17 216.349Z" fill="#60ACAC"/>
<g opacity="0.1">
<path d="M339.17 216.349L333.511 213.519C333.511 213.519 330.796 200.437 332.822 189.185C335.681 173.369 347.999 167.916 352.472 169.489C356.945 171.062 358.005 175.743 349.95 184.878C345.157 190.273 339.002 201.672 339.17 216.349Z" fill="black"/>
</g>
<path d="M337.119 210.065H337.177C337.283 210.052 337.379 210.003 337.444 209.929C337.508 209.854 337.537 209.761 337.522 209.668C335.185 194.859 341.995 178.639 349.647 172.098C349.691 172.067 349.728 172.028 349.754 171.985C349.78 171.941 349.795 171.892 349.799 171.843C349.802 171.794 349.793 171.744 349.774 171.698C349.754 171.652 349.723 171.609 349.683 171.574C349.643 171.539 349.596 171.511 349.543 171.493C349.49 171.475 349.434 171.467 349.377 171.469C349.321 171.472 349.265 171.484 349.215 171.506C349.164 171.529 349.12 171.56 349.084 171.598C341.289 178.249 334.344 194.741 336.723 209.764C336.736 209.847 336.783 209.924 336.856 209.98C336.928 210.035 337.022 210.066 337.119 210.065Z" fill="white"/>
<path d="M354.894 224.286C355.785 224.734 357.627 223.75 358.333 223.338C359.545 222.617 360.524 221.635 361.175 220.486C361.904 219.183 362.154 217.715 361.89 216.283C361.741 215.537 361.536 214.8 361.276 214.078L360.569 211.91C360.278 211.204 360.152 210.454 360.199 209.705C360.418 208.235 361.923 207.177 363.294 206.28C364.807 205.295 366.388 203.987 366.38 202.201C366.269 200.815 365.636 199.499 364.58 198.46C363.605 197.38 362.444 196.424 361.562 195.278C360.864 194.485 360.499 193.507 360.527 192.507C360.625 191.894 360.862 191.304 361.225 190.773C362.053 189.666 362.778 188.504 363.395 187.296C363.891 186.047 363.823 184.496 362.705 183.622C362.205 183.301 361.636 183.071 361.033 182.945C360.429 182.819 359.803 182.799 359.19 182.887C358.03 183.012 356.914 183.356 355.92 183.894C352.674 185.466 350.824 188.825 347.385 190.038C346.007 190.414 344.603 190.711 343.181 190.927C342.477 191.043 341.809 191.286 341.218 191.641C340.627 191.995 340.128 192.453 339.75 192.985C338.489 195.19 340.827 197.909 339.944 200.253C339.153 202.326 336.85 203.112 335.563 204.987C335.034 205.81 334.822 206.761 334.958 207.698C335.068 209.282 335.509 210.834 336.261 212.277C337.101 213.714 338.062 215.095 339.137 216.407C339.229 216.393 354.751 224.213 354.894 224.286Z" fill="#60ACAC"/>
<path d="M345.729 220.001C345.782 220 345.835 219.99 345.885 219.971C345.934 219.952 345.978 219.925 346.015 219.89C346.052 219.856 346.08 219.816 346.099 219.772C346.118 219.728 346.126 219.681 346.124 219.634C345.46 205.619 353.01 190.148 358.501 185.65C358.538 185.618 358.568 185.58 358.588 185.537C358.609 185.495 358.619 185.45 358.619 185.404C358.619 185.358 358.609 185.313 358.588 185.27C358.568 185.228 358.538 185.19 358.501 185.158C358.463 185.125 358.419 185.099 358.37 185.081C358.321 185.063 358.268 185.054 358.215 185.054C358.162 185.054 358.109 185.063 358.06 185.081C358.011 185.099 357.967 185.125 357.929 185.158C352.321 189.744 344.619 205.472 345.317 219.7C345.331 219.786 345.381 219.864 345.457 219.919C345.533 219.975 345.63 220.004 345.729 220.001Z" fill="white"/>
<path d="M348.1 203.443C348.139 203.45 348.179 203.45 348.218 203.443C352.017 202.529 355.919 201.979 359.855 201.804C359.961 201.799 360.061 201.757 360.133 201.689C360.205 201.62 360.244 201.53 360.242 201.437C360.24 201.39 360.229 201.344 360.207 201.302C360.185 201.259 360.153 201.221 360.114 201.189C360.075 201.158 360.028 201.133 359.978 201.118C359.928 201.102 359.874 201.096 359.821 201.099C355.817 201.275 351.847 201.834 347.982 202.767C347.931 202.78 347.884 202.802 347.843 202.832C347.802 202.861 347.768 202.898 347.743 202.939C347.718 202.98 347.702 203.024 347.697 203.071C347.692 203.117 347.698 203.164 347.713 203.208C347.74 203.278 347.792 203.339 347.862 203.381C347.932 203.424 348.015 203.445 348.1 203.443Z" fill="white"/>
<path d="M35.9656 216.496L41.6244 213.666C41.6244 213.666 44.3403 200.577 42.3139 189.332C39.4551 173.516 27.1369 168.056 22.6636 169.628C18.1904 171.201 17.131 175.89 25.1861 185.025C29.9873 190.42 36.117 201.819 35.9656 216.496Z" fill="#37474F"/>
<path d="M37.9836 210.19C37.8771 210.175 37.7813 210.125 37.7168 210.049C37.6524 209.974 37.6244 209.879 37.6389 209.786C39.9848 194.984 33.1656 178.756 25.514 172.223C25.4371 172.157 25.393 172.068 25.3914 171.974C25.3899 171.881 25.4309 171.79 25.5056 171.723C25.5804 171.656 25.6826 171.617 25.7898 171.616C25.897 171.614 26.0005 171.65 26.0774 171.716C33.8719 178.374 40.8172 194.859 38.4377 209.889C38.4315 209.935 38.4147 209.979 38.3884 210.02C38.362 210.06 38.3265 210.096 38.2841 210.124C38.2417 210.152 38.1932 210.172 38.1416 210.184C38.0899 210.195 38.0362 210.197 37.9836 210.19Z" fill="white"/>
<path d="M20.2504 224.426C19.3507 224.874 17.5093 223.897 16.803 223.478C15.591 222.76 14.612 221.78 13.961 220.633C13.2314 219.33 12.9818 217.862 13.2463 216.43C13.3936 215.683 13.5987 214.947 13.8601 214.225L14.5664 212.057C14.8613 211.352 14.9873 210.601 14.9364 209.852C14.7178 208.382 13.2127 207.331 11.8421 206.434C10.3286 205.442 8.74784 204.134 8.75624 202.348C8.86865 200.964 9.50126 199.652 10.5556 198.615C11.5394 197.527 12.6913 196.571 13.5742 195.432C14.2683 194.638 14.6329 193.661 14.6084 192.662C14.5124 192.048 14.275 191.458 13.9106 190.927C13.0825 189.805 12.3572 188.628 11.7412 187.407C11.2451 186.157 11.3208 184.599 12.4307 183.732C12.9312 183.411 13.4998 183.181 14.1033 183.055C14.7068 182.929 15.3331 182.909 15.9454 182.997C17.1071 183.118 18.2239 183.462 19.2162 184.004C22.4618 185.577 24.3117 188.935 27.7507 190.148C29.1295 190.521 30.5336 190.818 31.9548 191.037C32.6594 191.152 33.3287 191.394 33.9196 191.748C34.5105 192.103 35.0098 192.562 35.3854 193.095C36.6551 195.3 34.3092 198.019 35.192 200.356C35.9824 202.429 38.2863 203.223 39.5812 205.089C40.1041 205.915 40.3159 206.864 40.1866 207.801C40.0545 209.392 39.5929 210.948 38.8244 212.395C37.9825 213.831 37.0214 215.211 35.9488 216.525C35.9068 216.54 20.385 224.36 20.2504 224.426Z" fill="#455A64"/>
<path d="M29.4407 220.148C29.3329 220.145 29.2312 220.104 29.1573 220.035C29.0834 219.966 29.0433 219.875 29.0456 219.781C29.7182 205.766 22.1591 190.295 16.6685 185.797C16.6309 185.764 16.601 185.725 16.5806 185.683C16.5603 185.64 16.5498 185.594 16.5498 185.547C16.5498 185.501 16.5603 185.455 16.5806 185.412C16.601 185.369 16.6309 185.33 16.6685 185.297C16.7453 185.233 16.8477 185.197 16.9544 185.197C17.061 185.197 17.1635 185.233 17.2403 185.297C22.8486 189.883 30.5591 205.611 29.8528 219.84C29.8403 219.927 29.7911 220.006 29.715 220.064C29.6388 220.121 29.541 220.151 29.4407 220.148Z" fill="white"/>
<path d="M27.0528 203.575H26.9351C23.1313 202.656 19.2229 202.106 15.2811 201.936C15.1748 201.931 15.0751 201.889 15.003 201.821C14.9309 201.752 14.892 201.662 14.8943 201.569C14.8954 201.522 14.9072 201.476 14.9291 201.434C14.951 201.391 14.9826 201.353 15.0219 201.321C15.0612 201.29 15.1074 201.266 15.1577 201.25C15.208 201.234 15.2615 201.228 15.3147 201.231C19.3217 201.407 23.2945 201.967 27.1621 202.899C27.2632 202.928 27.3473 202.99 27.3962 203.073C27.445 203.155 27.4545 203.252 27.4228 203.34C27.3966 203.408 27.3469 203.467 27.2807 203.509C27.2144 203.551 27.1347 203.575 27.0528 203.575Z" fill="white"/>
<path d="M298.962 154.489C299.399 150.777 303.384 143.369 308.37 138.945C313.357 134.52 320.697 131.632 325.448 133.55C329.871 135.336 328.744 140.547 322.766 143.531C316.787 146.514 307.908 150.145 304.746 155.922L298.735 162.845L298.962 154.489Z" fill="#37474F"/>
<path d="M298.045 159.545C298.112 159.545 298.177 159.526 298.232 159.492C298.286 159.458 298.327 159.409 298.348 159.354C302.695 146.933 315.652 137.695 322.942 136.056C322.982 136.048 323.019 136.032 323.052 136.011C323.085 135.99 323.113 135.963 323.134 135.932C323.155 135.901 323.169 135.867 323.175 135.832C323.181 135.796 323.179 135.76 323.169 135.726C323.159 135.691 323.142 135.658 323.117 135.63C323.093 135.601 323.062 135.577 323.027 135.559C322.991 135.542 322.952 135.53 322.912 135.526C322.871 135.522 322.83 135.524 322.791 135.534C315.358 137.203 302.165 146.559 297.751 159.192C297.739 159.226 297.735 159.262 297.74 159.298C297.744 159.333 297.756 159.368 297.776 159.399C297.795 159.431 297.822 159.458 297.853 159.481C297.885 159.503 297.922 159.52 297.961 159.53L298.045 159.545Z" fill="white"/>
<path d="M299.239 167.85C300.172 165.829 303.494 162.646 308.555 160.229C314.147 157.561 320.924 156.708 322.732 154.4C324.91 151.622 322.404 148.587 316.972 148.683C311.54 148.778 301.358 154.312 298.709 163.8L299.239 167.85Z" fill="#455A64"/>
<path d="M298.465 165.572C298.526 165.572 298.585 165.557 298.636 165.528C298.687 165.499 298.727 165.458 298.751 165.41C304.486 154.959 314.416 152.012 318.872 151.909C318.954 151.905 319.031 151.874 319.088 151.822C319.144 151.77 319.175 151.701 319.175 151.63C319.171 151.593 319.159 151.558 319.138 151.526C319.118 151.495 319.09 151.467 319.057 151.445C319.024 151.423 318.986 151.407 318.946 151.398C318.905 151.389 318.863 151.388 318.822 151.394C313.903 151.505 304.015 154.533 298.154 165.204C298.136 165.237 298.125 165.272 298.123 165.309C298.121 165.345 298.127 165.382 298.141 165.416C298.155 165.45 298.177 165.482 298.205 165.508C298.234 165.535 298.268 165.557 298.306 165.572H298.465Z" fill="white"/>
<path d="M38.6395 241.682L130.408 287.984C131.536 288.484 132.784 288.745 134.049 288.745C135.314 288.745 136.561 288.484 137.69 287.984L311.431 200.29C313.441 199.276 313.441 197.63 311.431 196.615L219.663 150.314C218.535 149.81 217.288 149.548 216.022 149.548C214.756 149.548 213.508 149.81 212.381 150.314L38.6395 238.007C36.6299 239.022 36.6299 240.668 38.6395 241.682Z" fill="#37474F"/>
<path d="M89.7201 262.231C91.2839 262.923 93.0122 263.284 94.7651 263.284C96.518 263.284 98.2463 262.923 99.8101 262.231C102.602 260.82 102.602 258.556 99.8101 257.123C98.2451 256.434 96.5173 256.076 94.7651 256.076C93.0129 256.076 91.2851 256.434 89.7201 257.123C86.9285 258.534 86.9285 260.82 89.7201 262.231Z" fill="#263238"/>
<path d="M130.408 287.984L38.6395 241.682C36.8401 240.771 36.6551 239.36 38.0761 238.346C37.1786 238.966 36.4406 239.745 35.9104 240.631C35.3802 241.518 35.0695 242.492 34.9986 243.49V246.481C35.0677 247.585 35.4333 248.66 36.0658 249.618C36.6983 250.575 37.58 251.389 38.6395 251.993L130.408 298.295C131.53 298.807 132.783 299.06 134.049 299.03V288.748C132.78 288.769 131.527 288.506 130.408 287.984Z" fill="#455A64"/>
<path d="M311.431 210.631C312.491 210.027 313.372 209.213 314.005 208.255C314.637 207.297 315.003 206.223 315.072 205.119V202.106C315.002 201.107 314.692 200.133 314.162 199.246C313.631 198.36 312.893 197.581 311.994 196.961C313.415 197.975 313.23 199.386 311.431 200.29L137.69 287.984C136.567 288.495 135.314 288.748 134.049 288.718V299.118C135.314 299.147 136.567 298.894 137.69 298.383L311.431 210.631Z" fill="#263238"/>
<path d="M148.974 276.665L64.5119 234.039C63.3095 233.436 63.3095 232.444 64.5119 231.834L203.527 161.684C204.203 161.383 204.95 161.226 205.709 161.226C206.467 161.226 207.215 161.383 207.891 161.684L292.386 204.31C293.589 204.92 293.589 205.905 292.386 206.515L153.312 276.732C152.633 277.017 151.887 277.16 151.134 277.149C150.381 277.137 149.641 276.972 148.974 276.665Z" fill="#FAFAFA"/>
<path d="M142.087 266.303L78.1839 234.031C76.9731 233.421 76.9731 232.437 78.1839 231.827L80.6391 230.585C81.3164 230.284 82.0655 230.127 82.8253 230.127C83.585 230.127 84.3341 230.284 85.0114 230.585L148.915 262.856C150.126 263.459 150.126 264.451 148.915 265.061L146.451 266.303C145.775 266.602 145.027 266.758 144.269 266.758C143.511 266.758 142.763 266.602 142.087 266.303Z" fill="#E6E6E6"/>
<path d="M148.78 268.574L153.43 266.229C153.716 266.096 154.05 266.064 154.363 266.139C154.676 266.214 154.944 266.391 155.112 266.633L157.264 269.897C157.609 270.426 157.34 270.756 156.65 270.632L148.974 269.338C148.242 269.22 148.175 268.882 148.78 268.574Z" fill="#60ACAC"/>
<path d="M200.626 170.018C202.215 169.315 203.97 168.948 205.751 168.948C207.532 168.948 209.287 169.315 210.876 170.018C213.709 171.444 213.701 173.759 210.876 175.163C209.287 175.866 207.532 176.232 205.751 176.232C203.97 176.232 202.215 175.866 200.626 175.163C197.801 173.766 197.801 171.451 200.626 170.018Z" fill="#E6E6E6"/>
<path d="M265.051 200.805C266.253 201.415 266.253 202.4 265.051 203.01L252.337 209.455C251.66 209.756 250.911 209.913 250.151 209.913C249.391 209.913 248.642 209.756 247.965 209.455L207.933 189.259C206.73 188.649 206.73 187.664 207.933 187.054L219.41 181.263L215.996 176.118L265.051 200.805Z" fill="#E6E6E6"/>
<path d="M223.253 183.938L258.644 201.797C259.241 202.098 259.35 202.532 258.879 202.782C258.566 202.894 258.228 202.941 257.891 202.92C257.554 202.898 257.227 202.808 256.937 202.657L221.546 184.798C220.941 184.496 220.84 184.063 221.311 183.82C221.622 183.706 221.96 183.657 222.298 183.678C222.635 183.698 222.962 183.787 223.253 183.938Z" fill="#FAFAFA"/>
<path d="M219.831 185.672L255.213 203.531C255.818 203.833 255.928 204.266 255.457 204.516C255.143 204.629 254.803 204.676 254.465 204.654C254.126 204.632 253.798 204.542 253.506 204.391L218.124 186.532C217.518 186.231 217.409 185.797 217.88 185.555C218.193 185.441 218.533 185.392 218.871 185.412C219.21 185.433 219.538 185.522 219.831 185.672Z" fill="#FAFAFA"/>
<path d="M216.409 187.407L251.791 205.266C252.396 205.567 252.505 206.001 252.035 206.251C251.721 206.363 251.381 206.41 251.042 206.389C250.704 206.367 250.376 206.277 250.084 206.126L214.702 188.267C214.096 187.965 213.987 187.532 214.458 187.289C214.771 187.175 215.11 187.126 215.449 187.147C215.788 187.167 216.116 187.256 216.409 187.407Z" fill="#FAFAFA"/>
<path d="M193.815 238.985C195.404 238.282 197.159 237.915 198.94 237.915C200.721 237.915 202.476 238.282 204.065 238.985C206.89 240.411 206.89 242.726 204.065 244.13C202.478 244.836 200.722 245.205 198.94 245.205C197.159 245.205 195.403 244.836 193.815 244.13C191.015 242.726 191.015 240.411 193.815 238.985Z" fill="#E6E6E6"/>
<path d="M181.859 234.678L170.373 240.484C169.697 240.785 168.949 240.942 168.191 240.942C167.432 240.942 166.685 240.785 166.009 240.484L125.952 220.273C124.741 219.663 124.741 218.678 125.952 218.068L138.673 211.66C139.349 211.359 140.097 211.202 140.855 211.202C141.614 211.202 142.361 211.359 143.037 211.66L192.108 236.42L181.859 234.678Z" fill="#E6E6E6"/>
<path d="M141.129 214.967L176.511 232.826C177.116 233.127 177.226 233.561 176.755 233.804C176.441 233.918 176.102 233.966 175.764 233.946C175.425 233.926 175.096 233.837 174.804 233.686L139.422 215.827C138.816 215.526 138.707 215.092 139.178 214.849C139.491 214.735 139.831 214.687 140.169 214.707C140.508 214.727 140.836 214.816 141.129 214.967Z" fill="#FAFAFA"/>
<path d="M137.698 216.701L173.089 234.561C173.694 234.862 173.795 235.295 173.324 235.538C173.012 235.652 172.674 235.701 172.337 235.68C172 235.66 171.673 235.571 171.382 235.42L135.991 217.539C135.394 217.238 135.285 216.804 135.756 216.562C136.07 216.451 136.409 216.406 136.746 216.43C137.083 216.455 137.409 216.547 137.698 216.701Z" fill="#FAFAFA"/>
<path d="M134.276 218.436L169.667 236.295C170.264 236.596 170.373 237.03 169.902 237.273C169.59 237.387 169.252 237.435 168.915 237.415C168.578 237.394 168.251 237.305 167.96 237.155L132.569 219.296C131.964 218.995 131.863 218.561 132.334 218.318C132.645 218.204 132.983 218.156 133.321 218.176C133.658 218.196 133.985 218.285 134.276 218.436Z" fill="#FAFAFA"/>
<path d="M152.808 194.153C154.395 193.447 156.151 193.078 157.933 193.078C159.714 193.078 161.47 193.447 163.058 194.153C165.891 195.579 165.891 197.894 163.058 199.298C161.469 200.001 159.713 200.368 157.933 200.368C156.152 200.368 154.396 200.001 152.808 199.298C149.983 197.894 149.983 195.579 152.808 194.153Z" fill="#E6E6E6"/>
<path d="M206.991 219.744C208.194 220.354 208.194 221.339 206.991 221.949L197.633 226.638C196.955 226.939 196.206 227.095 195.447 227.095C194.687 227.095 193.938 226.939 193.26 226.638L163.47 211.66C162.267 211.05 162.267 210.065 163.47 209.455L171.6 205.391L168.178 200.246L206.991 219.744Z" fill="#E6E6E6"/>
<path d="M176.721 207.052L202.375 219.994C202.98 220.303 203.09 220.729 202.619 220.979C202.305 221.091 201.966 221.138 201.628 221.118C201.29 221.098 200.961 221.01 200.668 220.861L174.981 207.912C174.375 207.603 174.266 207.177 174.737 206.927C175.055 206.809 175.401 206.76 175.746 206.781C176.091 206.803 176.425 206.896 176.721 207.052Z" fill="#FAFAFA"/>
<path d="M173.257 208.786L198.919 221.728C199.525 222.037 199.634 222.463 199.163 222.713C198.849 222.825 198.51 222.873 198.172 222.852C197.834 222.832 197.506 222.744 197.212 222.596L171.55 209.646C170.953 209.337 170.844 208.911 171.315 208.661C171.627 208.549 171.965 208.502 172.303 208.523C172.64 208.545 172.966 208.635 173.257 208.786Z" fill="#FAFAFA"/>
<path d="M169.835 210.521L195.497 223.463C196.102 223.772 196.203 224.198 195.732 224.448C195.42 224.56 195.082 224.607 194.746 224.587C194.409 224.566 194.082 224.479 193.79 224.33L168.128 211.38C167.522 211.072 167.422 210.646 167.892 210.396C168.205 210.283 168.543 210.236 168.88 210.258C169.218 210.279 169.544 210.369 169.835 210.521Z" fill="#FAFAFA"/>
<path d="M238.22 216.577C239.808 215.873 241.564 215.507 243.345 215.507C245.125 215.507 246.881 215.873 248.469 216.577C251.295 218.01 251.295 220.325 248.469 221.721C246.881 222.424 245.125 222.791 243.345 222.791C241.564 222.791 239.808 222.424 238.22 221.721C235.386 220.325 235.386 218.01 238.22 216.577Z" fill="#E6E6E6"/>
<path d="M226.263 212.27L221.622 214.6C220.944 214.9 220.195 215.057 219.435 215.057C218.676 215.057 217.927 214.9 217.249 214.6L197.742 204.751C196.54 204.141 196.54 203.156 197.742 202.546L203.628 199.607C204.305 199.306 205.054 199.149 205.814 199.149C206.574 199.149 207.323 199.306 208 199.607L236.588 214.019L226.263 212.27Z" fill="#E6E6E6"/>
<path d="M206.562 201.371L223.682 210.014C224.287 210.315 224.396 210.748 223.926 210.991C223.612 211.105 223.273 211.154 222.934 211.133C222.596 211.113 222.267 211.024 221.975 210.873L204.855 202.23C204.25 201.929 204.149 201.496 204.62 201.253C204.932 201.139 205.27 201.09 205.607 201.111C205.944 201.131 206.271 201.22 206.562 201.371Z" fill="#FAFAFA"/>
<path d="M203.14 203.134L220.26 211.777C220.865 212.079 220.966 212.512 220.495 212.755C220.183 212.869 219.845 212.918 219.508 212.897C219.171 212.877 218.844 212.788 218.553 212.637L201.433 203.994C200.828 203.693 200.719 203.259 201.189 203.017C201.503 202.903 201.842 202.854 202.181 202.874C202.519 202.895 202.848 202.984 203.14 203.134Z" fill="#FAFAFA"/>
<path d="M101.584 220.001C103.171 219.298 104.926 218.932 106.705 218.932C108.484 218.932 110.239 219.298 111.826 220.001C114.659 221.435 114.659 223.75 111.826 225.146C110.239 225.849 108.484 226.216 106.705 226.216C104.926 226.216 103.171 225.849 101.584 225.146C98.7507 223.75 98.7507 221.435 101.584 220.001Z" fill="#E6E6E6"/>
<path d="M142.028 238.728C143.231 239.338 143.231 240.323 142.028 240.933L136.143 243.909C135.465 244.21 134.716 244.367 133.956 244.367C133.197 244.367 132.448 244.21 131.77 243.909L115.71 235.766C114.508 235.156 114.508 234.171 115.71 233.561L120.335 231.209L116.921 226.065L142.028 238.728Z" fill="#E6E6E6"/>
<path d="M125.279 232.731L138.379 239.345C138.985 239.646 139.094 240.08 138.623 240.323C138.31 240.437 137.97 240.485 137.632 240.465C137.293 240.445 136.965 240.356 136.672 240.205L123.572 233.59C122.967 233.289 122.857 232.856 123.328 232.613C123.641 232.499 123.981 232.45 124.319 232.471C124.658 232.491 124.987 232.58 125.279 232.731Z" fill="#FAFAFA"/>
<path d="M121.857 234.443L134.957 241.057C135.562 241.359 135.672 241.792 135.192 242.035C134.881 242.149 134.542 242.198 134.205 242.177C133.868 242.157 133.541 242.068 133.25 241.917L120.141 235.303C119.544 235.002 119.435 234.568 119.906 234.325C120.219 234.211 120.559 234.163 120.897 234.183C121.236 234.203 121.564 234.292 121.857 234.443Z" fill="#FAFAFA"/>
<path d="M258.501 177.22C258.846 177.373 259.228 177.452 259.615 177.452C260.002 177.452 260.383 177.373 260.729 177.22C260.867 177.184 260.987 177.109 261.073 177.008C261.158 176.907 261.205 176.784 261.205 176.658C261.205 176.532 261.158 176.41 261.073 176.308C260.987 176.207 260.867 176.133 260.729 176.096C260.385 175.94 260.002 175.859 259.615 175.859C259.227 175.859 258.845 175.94 258.501 176.096C258.363 176.133 258.242 176.207 258.157 176.308C258.071 176.41 258.025 176.532 258.025 176.658C258.025 176.784 258.071 176.907 258.157 177.008C258.242 177.109 258.363 177.184 258.501 177.22Z" fill="#263238"/>
<path d="M262.066 186.069C262.758 186.373 263.523 186.532 264.298 186.532C265.073 186.532 265.838 186.373 266.531 186.069C267.758 185.444 267.758 184.437 266.531 183.813C265.838 183.508 265.073 183.35 264.298 183.35C263.523 183.35 262.758 183.508 262.066 183.813C260.804 184.467 260.804 185.444 262.066 186.069Z" fill="#263238"/>
<path d="M258.921 182.144C259.762 181.733 259.695 181.035 258.82 180.594L244.139 173.186C243.666 172.967 243.142 172.849 242.607 172.84C242.073 172.831 241.544 172.932 241.062 173.134C240.221 173.553 240.288 174.244 241.163 174.685L255.844 182.1C256.316 182.321 256.841 182.441 257.376 182.448C257.911 182.456 258.441 182.352 258.921 182.144Z" fill="#263238"/>
<path d="M78.7304 183.96L74.0722 181.608C73.9797 181.575 73.9027 181.515 73.8536 181.439L73.0127 180.131L75.7791 178.734L75.695 178.947L78.7304 183.96Z" fill="#60ACAC"/>
<path opacity="0.2" d="M78.7304 183.96L74.0722 181.608C73.9797 181.575 73.9027 181.515 73.8536 181.439L73.0127 180.131L75.7791 178.734L75.695 178.947L78.7304 183.96Z" fill="black"/>
<path d="M75.3419 178.933L78.5707 183.813C78.6171 183.878 78.6836 183.931 78.7626 183.965C78.8415 183.999 78.9297 184.012 79.0172 184.005C79.1048 183.997 79.1881 183.968 79.2578 183.921C79.3275 183.874 79.3807 183.811 79.4115 183.739L82.8253 175.148L75.3419 178.933Z" fill="#60ACAC"/>
<path d="M143.618 117.337C143.583 116.655 143.365 115.989 142.981 115.394C142.596 114.798 142.057 114.291 141.406 113.912L139.573 112.986C138.875 112.675 138.103 112.512 137.32 112.512C136.536 112.512 135.764 112.675 135.066 112.986L61.7203 149.976C61.0639 150.349 60.5177 150.852 60.1261 151.445C59.7344 152.038 59.5086 152.703 59.4669 153.386V178.293C59.5099 178.977 59.7363 179.641 60.1278 180.234C60.5193 180.826 61.0649 181.33 61.7203 181.704L63.5618 182.63C64.2591 182.938 65.0296 183.098 65.811 183.098C66.5924 183.098 67.3628 182.938 68.0602 182.63L141.574 145.515C143.601 144.501 143.618 143.494 143.618 142.237V117.337Z" fill="#60ACAC"/>
<path opacity="0.2" d="M59.4249 178.308C59.4679 178.991 59.6943 179.656 60.0858 180.248C60.4773 180.841 61.0228 181.344 61.6783 181.718L63.5197 182.644C64.1547 182.923 64.85 183.082 65.56 183.11C66.27 183.138 66.9788 183.034 67.6398 182.806C66.5804 183.159 65.7732 182.63 65.7732 181.505V156.598C65.8012 155.913 66.0268 155.246 66.429 154.658L60.0891 151.461C59.6798 152.046 59.451 152.715 59.4249 153.401V178.308Z" fill="black"/>
<path opacity="0.4" d="M143.542 116.779C143.281 115.941 142.407 115.676 141.364 116.198L68.0182 153.188C67.354 153.549 66.8091 154.056 66.4374 154.658L60.0975 151.461C60.4747 150.86 61.0219 150.354 61.6867 149.991L135.016 113.001C135.717 112.695 136.49 112.535 137.273 112.535C138.057 112.535 138.83 112.695 139.531 113.001L141.406 113.912C141.966 114.238 142.444 114.661 142.812 115.153C143.179 115.646 143.427 116.199 143.542 116.779Z" fill="white"/>
<path d="M71.8272 157.031L136.361 124.4C137.118 124.018 137.732 124.194 137.732 124.79C137.675 125.156 137.522 125.506 137.284 125.813C137.046 126.119 136.73 126.372 136.361 126.553L71.8524 159.185C71.0956 159.567 70.4818 159.398 70.4818 158.803C70.5356 158.437 70.6849 158.087 70.9182 157.78C71.1515 157.473 71.4625 157.217 71.8272 157.031Z" fill="white"/>
<path d="M71.8272 168.144L125.279 141.164C126.027 140.782 126.641 140.958 126.641 141.546C126.585 141.913 126.433 142.264 126.196 142.571C125.96 142.878 125.646 143.133 125.279 143.317L71.8272 170.297C71.0704 170.679 70.4566 170.503 70.4566 169.908C70.5119 169.541 70.6646 169.19 70.9026 168.884C71.1405 168.577 71.4572 168.324 71.8272 168.144Z" fill="white"/>
<path d="M71.8272 173.553L134.747 141.745C135.495 141.363 136.109 141.539 136.109 142.134C136.053 142.5 135.9 142.85 135.664 143.156C135.428 143.462 135.114 143.716 134.747 143.898L71.8272 175.706C71.0704 176.081 70.4566 175.912 70.4566 175.317C70.5119 174.95 70.6646 174.599 70.9026 174.293C71.1405 173.987 71.4572 173.733 71.8272 173.553Z" fill="white"/>
<path d="M71.8272 162.463L134.747 130.654C135.495 130.28 136.109 130.449 136.109 131.044C136.053 131.411 135.901 131.761 135.664 132.068C135.428 132.376 135.114 132.631 134.747 132.815L71.8272 164.623C71.0704 165.006 70.4566 164.829 70.4566 164.234C70.5132 163.866 70.6663 163.515 70.9041 163.208C71.1419 162.9 71.4578 162.645 71.8272 162.463Z" fill="white"/>
<path d="M78.7304 61.2906L74.0722 58.9387C73.9797 58.9054 73.9027 58.8459 73.8536 58.7697L73.0127 57.4615L75.7791 56.0651L75.695 56.2782L78.7304 61.2906Z" fill="#60ACAC"/>
<path opacity="0.2" d="M78.7304 61.2906L74.0722 58.9387C73.9797 58.9054 73.9027 58.8459 73.8536 58.7697L73.0127 57.4615L75.7791 56.0651L75.695 56.2782L78.7304 61.2906Z" fill="black"/>
<path d="M75.3419 56.2635L78.5707 61.1436C78.619 61.2065 78.686 61.2568 78.7645 61.2891C78.8429 61.3214 78.9299 61.3344 79.0162 61.3269C79.1025 61.3193 79.1849 61.2915 79.2545 61.2462C79.3241 61.201 79.3784 61.1401 79.4115 61.0701L82.8253 52.4712L75.3419 56.2635Z" fill="#60ACAC"/>
<path d="M136.025 4.81022C135.983 4.12683 135.757 3.46172 135.366 2.86911C134.974 2.27649 134.428 1.77314 133.771 1.40009L131.938 0.474061C131.241 0.162469 130.468 0 129.685 0C128.901 0 128.129 0.162469 127.431 0.474061L61.6783 33.642C61.0219 34.0151 60.4756 34.5184 60.084 35.111C59.6924 35.7036 59.4666 36.3688 59.4249 37.0521V55.6315C59.4666 56.3149 59.6924 56.98 60.084 57.5726C60.4756 58.1652 61.0219 58.6686 61.6783 59.0416L63.5197 59.9677C64.2159 60.2792 64.9868 60.4416 65.769 60.4416C66.5511 60.4416 67.322 60.2792 68.0182 59.9677L133.982 26.6674C136.008 25.6532 136.025 24.6463 136.025 23.3896V4.81022Z" fill="#60ACAC"/>
<path opacity="0.2" d="M59.4249 55.6315C59.4666 56.3149 59.6924 56.98 60.084 57.5726C60.4756 58.1652 61.0219 58.6686 61.6783 59.0416L63.5197 59.9676C64.1541 60.2479 64.8491 60.4079 65.5591 60.437C66.2691 60.4661 66.9782 60.3638 67.6398 60.1367C66.5804 60.4821 65.7732 59.9529 65.7732 58.8358V40.2491C65.8012 39.5644 66.0268 38.897 66.429 38.3089L60.0891 35.1119C59.6809 35.6981 59.4521 36.3663 59.4249 37.0521V55.6315Z" fill="black"/>
<path opacity="0.4" d="M135.949 4.25166C135.688 3.41383 134.814 3.14925 133.771 3.67106L68.0182 36.8464C67.352 37.2057 66.8065 37.7128 66.4374 38.3162L60.0975 35.1192C60.4722 34.517 61.0199 34.0104 61.6867 33.6494L127.423 0.47406C128.124 0.167498 128.897 0.00788879 129.681 0.00788879C130.464 0.00788879 131.237 0.167498 131.938 0.47406L133.771 1.40009C134.336 1.7217 134.821 2.14029 135.195 2.63048C135.57 3.12066 135.826 3.67221 135.949 4.25166Z" fill="white"/>
<path d="M71.8272 45.4672L117.678 22.3092C118.435 21.927 119.048 22.1034 119.048 22.6987C118.991 23.0651 118.837 23.4148 118.599 23.7208C118.361 24.0267 118.046 24.2806 117.678 24.4626L71.8272 47.6206C71.0704 48.0028 70.4566 47.8264 70.4566 47.2384C70.5132 46.8708 70.6663 46.5196 70.9041 46.2123C71.1419 45.905 71.4578 45.65 71.8272 45.4672Z" fill="white"/>
<path d="M71.8272 50.8764L127.112 22.8898C127.869 22.5076 128.483 22.684 128.483 23.2793C128.426 23.646 128.273 23.9962 128.035 24.3023C127.797 24.6084 127.481 24.862 127.112 25.0432L71.7935 53.0298C71.0368 53.412 70.423 53.2356 70.423 52.6403C70.4831 52.2708 70.6415 51.9188 70.8853 51.6125C71.1292 51.3062 71.4517 51.0541 71.8272 50.8764Z" fill="white"/>
<path d="M71.8272 39.7935L127.112 11.8069C127.869 11.4247 128.483 11.5937 128.483 12.189C128.426 12.5567 128.273 12.9079 128.035 13.2152C127.797 13.5225 127.481 13.7775 127.112 13.9602L71.8272 41.9469C71.0704 42.329 70.4566 42.1526 70.4566 41.5573C70.5131 41.1906 70.6664 40.8404 70.9042 40.5343C71.1421 40.2282 71.458 39.9746 71.8272 39.7935Z" fill="white"/>
<path d="M189.023 35.9056L184.364 33.5538C184.272 33.5205 184.195 33.461 184.146 33.3848L183.305 32.0766L186.071 30.6802L185.97 30.8639L189.023 35.9056Z" fill="#263238"/>
<path d="M185.634 30.8639L188.863 35.7439C188.911 35.8069 188.978 35.8572 189.057 35.8895C189.135 35.9217 189.222 35.9348 189.308 35.9273C189.395 35.9197 189.477 35.8919 189.547 35.8466C189.616 35.8014 189.67 35.7405 189.704 35.6705L193.117 27.0716L185.634 30.8639Z" fill="#37474F"/>
<path d="M200.845 4.83963C200.796 4.16194 200.565 3.50375 200.173 2.9179C199.78 2.33205 199.235 1.83486 198.583 1.46624L196.75 0.540217C196.05 0.234846 195.279 0.075882 194.496 0.075882C193.714 0.075882 192.943 0.234846 192.243 0.540217L129.769 31.9664C129.113 32.3394 128.566 32.8428 128.175 33.4354C127.783 34.028 127.557 34.6931 127.516 35.3765V51.5452C127.557 52.2286 127.783 52.8937 128.175 53.4863C128.566 54.0789 129.113 54.5823 129.769 54.9554L131.602 55.8814C132.3 56.193 133.072 56.3554 133.855 56.3554C134.639 56.3554 135.411 56.193 136.109 55.8814L198.801 24.2789C200.828 23.272 200.845 22.2578 200.845 21.001V4.83963Z" fill="#37474F"/>
<path d="M127.516 51.5232C127.557 52.2066 127.783 52.8717 128.175 53.4643C128.566 54.0569 129.113 54.5602 129.769 54.9333L131.602 55.8593C132.236 56.1396 132.931 56.2996 133.641 56.3287C134.351 56.3578 135.06 56.2555 135.722 56.0284C134.663 56.3738 133.855 55.8446 133.855 54.7275V38.5588C133.883 37.8729 134.111 37.2047 134.52 36.6185L128.18 33.4215C127.772 34.0077 127.543 34.6759 127.516 35.3618V51.5232Z" fill="#263238"/>
<path d="M200.769 4.28107C200.508 3.44324 199.634 3.17866 198.591 3.70047L136.109 35.1707C135.44 35.5298 134.892 36.0369 134.52 36.6406L128.188 33.4436C128.56 32.8418 129.105 32.3352 129.769 31.9737L192.243 0.503464C192.944 0.196902 193.717 0.0372925 194.501 0.0372925C195.284 0.0372925 196.057 0.196902 196.758 0.503464L198.583 1.46624C199.146 1.78205 199.63 2.19428 200.006 2.67806C200.381 3.16185 200.641 3.70715 200.769 4.28107Z" fill="#455A64"/>
<path d="M139.909 39.7494L182.498 18.2891C183.254 17.9142 183.868 18.0833 183.868 18.6786C183.813 19.0456 183.66 19.3963 183.422 19.7026C183.184 20.0089 182.868 20.2622 182.498 20.4425L139.909 41.8881C139.161 42.2629 138.547 42.0939 138.547 41.4986C138.605 41.135 138.758 40.7879 138.994 40.4845C139.23 40.181 139.544 39.9295 139.909 39.7494Z" fill="#60ACAC"/>
<path d="M139.909 45.1512L191.974 18.877C192.722 18.4948 193.336 18.6639 193.336 19.2592C193.28 19.626 193.128 19.9766 192.891 20.2837C192.655 20.5909 192.341 20.8464 191.974 21.0304L139.909 47.3119C139.161 47.6868 138.547 47.5177 138.547 46.9224C138.604 46.5556 138.756 46.205 138.992 45.8979C139.228 45.5907 139.542 45.3352 139.909 45.1512Z" fill="#60ACAC"/>
<path d="M78.7304 120.174L74.0722 117.822C73.9797 117.789 73.9027 117.729 73.8536 117.653L73.0127 116.345L75.7791 114.949L75.695 115.162L78.7304 120.174Z" fill="#60ACAC"/>
<path opacity="0.2" d="M78.7304 120.174L74.0722 117.822C73.9797 117.789 73.9027 117.729 73.8536 117.653L73.0127 116.345L75.7791 114.949L75.695 115.162L78.7304 120.174Z" fill="black"/>
<path d="M75.3419 115.147L78.5707 120.027C78.6183 120.09 78.6847 120.141 78.7627 120.174C78.8407 120.207 78.9274 120.22 79.0137 120.214C79.0999 120.207 79.1824 120.18 79.2525 120.135C79.3225 120.091 79.3775 120.031 79.4115 119.961L82.8253 111.362L75.3419 115.147Z" fill="#60ACAC"/>
<path d="M110.169 75.7395C110.126 75.0564 109.9 74.3917 109.508 73.7993C109.117 73.2068 108.571 72.7033 107.916 72.3294L106.091 71.4034C105.391 71.098 104.62 70.939 103.838 70.939C103.056 70.939 102.284 71.098 101.584 71.4034L61.6867 91.5187C61.0312 91.8926 60.4857 92.3962 60.0942 92.9886C59.7027 93.5811 59.4763 94.2457 59.4333 94.9289V114.522C59.4763 115.206 59.7027 115.87 60.0942 116.463C60.4857 117.055 61.0312 117.559 61.6867 117.933L63.5281 118.859C64.2255 119.167 64.996 119.327 65.7774 119.327C66.5588 119.327 67.3292 119.167 68.0266 118.859L108.134 98.6036C110.161 97.5967 110.178 96.5825 110.178 95.3331L110.169 75.7395Z" fill="#60ACAC"/>
<path opacity="0.2" d="M59.4249 114.522C59.4679 115.206 59.6943 115.87 60.0858 116.463C60.4773 117.055 61.0228 117.559 61.6783 117.933L63.5197 118.859C64.1547 119.138 64.85 119.296 65.56 119.324C66.27 119.352 66.9788 119.249 67.6398 119.02C66.5804 119.373 65.7732 118.844 65.7732 117.719V98.1332C65.8001 97.4483 66.0258 96.7807 66.429 96.193L60.0891 92.9886C59.6809 93.5748 59.4521 94.243 59.4249 94.9289V114.522Z" fill="black"/>
<path opacity="0.4" d="M110.093 75.181C109.833 74.3431 108.958 74.0785 107.924 74.6003L68.0182 94.7231C67.352 95.0824 66.8065 95.5895 66.4374 96.193L60.0975 92.996C60.4722 92.3937 61.0199 91.8871 61.6867 91.5261L101.576 71.4034C102.276 71.098 103.047 70.939 103.829 70.939C104.611 70.939 105.383 71.098 106.083 71.4034L107.924 72.3367C108.488 72.6573 108.971 73.0748 109.344 73.5637C109.717 74.0527 109.972 74.603 110.093 75.181Z" fill="white"/>
<path d="M71.8272 104.358L91.797 94.2454C92.5453 93.8705 93.1591 94.0396 93.1591 94.6349C93.1029 95.0017 92.9507 95.3523 92.7145 95.6594C92.4783 95.9666 92.1643 96.2221 91.797 96.4061L71.7935 106.512C71.0368 106.894 70.423 106.717 70.423 106.122C70.4818 105.752 70.6397 105.4 70.8837 105.093C71.1276 104.787 71.4509 104.535 71.8272 104.358Z" fill="white"/>
<path d="M71.8272 109.767L101.298 94.8039C102.055 94.4218 102.661 94.5981 102.661 95.1934C102.606 95.5598 102.455 95.9101 102.218 96.2163C101.982 96.5225 101.667 96.7762 101.298 96.9573L71.8272 111.891C71.0704 112.266 70.4566 112.097 70.4566 111.502C70.5168 111.14 70.6718 110.795 70.9095 110.494C71.1473 110.193 71.4613 109.945 71.8272 109.767Z" fill="white"/>
<path d="M71.8272 98.6771L101.298 83.7798C102.055 83.405 102.661 83.574 102.661 84.1693C102.606 84.5366 102.455 84.8879 102.218 85.1953C101.982 85.5027 101.667 85.7578 101.298 85.9405L71.8272 100.83C71.0704 101.213 70.4566 101.036 70.4566 100.448C70.5132 100.081 70.6663 99.7294 70.9041 99.4221C71.1419 99.1148 71.4578 98.8598 71.8272 98.6771Z" fill="white"/>
<path d="M193.538 141.252L191.537 137.96L193.151 133.896V131.404L188.215 133.896V136.387L190.334 139.591C190.366 139.643 190.416 139.684 190.477 139.709L193.538 141.252Z" fill="#60ACAC"/>
<path d="M193.538 141.238L190.502 139.709C190.444 139.685 190.394 139.646 190.359 139.599L189.788 138.731L191.335 137.952L193.454 141.157C193.477 141.187 193.506 141.214 193.538 141.238Z" fill="#E0E0E0"/>
<path d="M201.316 118.807C201.282 118.364 201.131 117.934 200.874 117.552C200.617 117.169 200.262 116.844 199.836 116.602L198.625 115.992C198.168 115.79 197.662 115.684 197.149 115.684C196.636 115.684 196.131 115.79 195.674 115.992L167.783 130.081C167.357 130.323 167.002 130.648 166.745 131.031C166.488 131.413 166.337 131.843 166.303 132.286V144.898C166.337 145.34 166.488 145.77 166.745 146.153C167.002 146.536 167.357 146.861 167.783 147.102L168.985 147.712C169.444 147.915 169.951 148.021 170.465 148.021C170.979 148.021 171.486 147.915 171.945 147.712L191.335 137.93L193.454 141.135C193.483 141.182 193.528 141.221 193.582 141.246C193.636 141.271 193.698 141.281 193.759 141.276C193.82 141.27 193.878 141.249 193.926 141.215C193.973 141.181 194.008 141.135 194.025 141.083L196.262 135.439L199.836 133.631C200.266 133.385 200.624 133.054 200.882 132.664C201.139 132.275 201.287 131.838 201.316 131.389V118.807Z" fill="#E6E6E6"/>
<path d="M166.303 144.89C166.337 145.333 166.488 145.763 166.745 146.146C167.002 146.528 167.357 146.854 167.783 147.095L168.985 147.705C169.403 147.889 169.86 147.993 170.327 148.011C170.793 148.029 171.259 147.96 171.693 147.808C170.995 148.043 170.465 147.698 170.465 146.963V134.381C170.485 133.932 170.632 133.495 170.894 133.109L166.732 131.007C166.47 131.393 166.323 131.83 166.303 132.279V144.89Z" fill="#E0E0E0"/>
<path d="M201.265 118.44C201.089 117.888 200.517 117.705 199.836 118.057L171.945 132.146C171.505 132.38 171.145 132.712 170.903 133.109L166.698 131.007C166.946 130.613 167.305 130.282 167.741 130.044L195.623 115.956C196.084 115.758 196.59 115.656 197.103 115.656C197.616 115.656 198.122 115.758 198.583 115.956L199.794 116.566C200.172 116.773 200.499 117.047 200.752 117.369C201.005 117.692 201.179 118.056 201.265 118.44Z" fill="#F0F0F0"/>
<path d="M178.613 134.586C178.038 134.913 177.56 135.353 177.216 135.872C176.873 136.39 176.675 136.972 176.637 137.57C176.637 138.673 177.478 139.121 178.613 138.57C179.187 138.241 179.666 137.8 180.009 137.28C180.352 136.76 180.551 136.178 180.589 135.579C180.589 134.483 179.698 134.035 178.613 134.586Z" fill="white"/>
<path d="M185.886 130.904C185.312 131.233 184.834 131.675 184.49 132.194C184.147 132.714 183.949 133.296 183.91 133.896C183.91 134.991 184.802 135.439 185.886 134.888C186.461 134.561 186.939 134.121 187.283 133.602C187.626 133.084 187.825 132.502 187.862 131.904C187.862 130.816 186.979 130.353 185.886 130.904Z" fill="white"/>
<path d="M193.168 127.222C192.592 127.55 192.114 127.991 191.77 128.511C191.427 129.031 191.229 129.614 191.192 130.213C191.192 131.316 192.075 131.757 193.168 131.213C193.741 130.884 194.218 130.442 194.56 129.922C194.902 129.403 195.099 128.82 195.135 128.222C195.135 127.141 194.253 126.678 193.168 127.222Z" fill="white"/>
<path d="M189.115 90.7397L186.063 85.7274L188.518 79.5318V75.7395L181.001 79.5318V83.3241L184.238 88.2188C184.287 88.295 184.364 88.3546 184.457 88.3879L189.115 90.7397Z" fill="#60ACAC"/>
<path d="M184.448 88.3879C184.353 88.3555 184.273 88.2959 184.221 88.2188L183.381 86.9106L185.735 85.72L188.964 90.5927C189.001 90.6553 189.056 90.7084 189.123 90.747L184.448 88.3879Z" fill="#263238"/>
<path d="M200.92 56.5428C200.877 55.8597 200.651 55.195 200.259 54.6026C199.868 54.0102 199.322 53.5066 198.667 53.1327L196.834 52.1773C196.134 51.8719 195.363 51.7129 194.58 51.7129C193.798 51.7129 193.027 51.8719 192.327 52.1773L135.991 80.5901C135.335 80.9632 134.788 81.4665 134.397 82.0592C134.005 82.6518 133.779 83.3169 133.738 84.0003V103.204C133.784 103.888 134.012 104.552 134.403 105.146C134.794 105.739 135.338 106.244 135.991 106.622L137.824 107.548C138.524 107.853 139.295 108.012 140.078 108.012C140.86 108.012 141.631 107.853 142.331 107.548L185.718 85.6833L188.938 90.5633C188.987 90.6262 189.054 90.6765 189.132 90.7088C189.211 90.7411 189.298 90.7542 189.384 90.7466C189.47 90.7391 189.553 90.7112 189.622 90.666C189.692 90.6208 189.746 90.5599 189.779 90.4898L193.185 81.8983L198.625 79.1349C199.28 78.7606 199.825 78.2569 200.217 77.6646C200.608 77.0723 200.835 76.4078 200.878 75.7248L200.92 56.5428Z" fill="#37474F"/>
<path d="M147.443 86.5064L194.219 62.8339C194.976 62.4518 195.589 62.6281 195.589 63.2234C195.533 63.5902 195.38 63.9404 195.142 64.2465C194.904 64.5526 194.588 64.8062 194.219 64.9873L147.443 88.6598C146.695 89.042 146.081 88.8729 146.081 88.2776C146.137 87.9108 146.29 87.5602 146.526 87.2531C146.762 86.9459 147.076 86.6905 147.443 86.5064Z" fill="#60ACAC"/>
<path d="M147.443 91.9156L183.154 73.8948C183.91 73.5126 184.524 73.689 184.524 74.2843C184.469 74.6514 184.316 75.0021 184.078 75.3083C183.84 75.6146 183.524 75.868 183.154 76.0482L147.443 94.069C146.695 94.4512 146.081 94.2748 146.081 93.6868C146.137 93.32 146.29 92.9694 146.526 92.6623C146.762 92.3551 147.076 92.0996 147.443 91.9156Z" fill="#60ACAC"/>
<path d="M147.443 97.3248L192.63 74.4754C193.378 74.1006 193.992 74.2696 193.992 74.8649C193.936 75.2317 193.783 75.5823 193.547 75.8895C193.311 76.1966 192.997 76.4521 192.63 76.6361L147.443 99.4782C146.695 99.8603 146.081 99.6839 146.081 99.0886C146.137 98.7228 146.29 98.3732 146.526 98.0673C146.762 97.7613 147.076 97.5072 147.443 97.3248Z" fill="#60ACAC"/>
<path d="M133.746 103.234C133.792 103.917 134.02 104.582 134.411 105.175C134.802 105.768 135.346 106.274 136 106.651L137.833 107.577C138.469 107.856 139.166 108.014 139.878 108.041C140.59 108.067 141.299 107.962 141.961 107.732C140.893 108.084 140.086 107.563 140.086 106.438V87.2267C140.113 86.5408 140.342 85.8726 140.75 85.2864L134.41 82.0894C134.002 82.6756 133.773 83.3438 133.746 84.0297V103.234Z" fill="#263238"/>
<path d="M200.845 55.9843C200.584 55.1464 199.71 54.8818 198.667 55.4037L142.331 83.8239C141.663 84.183 141.114 84.6901 140.742 85.2938L134.41 82.0968C134.782 81.495 135.327 80.9884 135.991 80.6269L192.327 52.2067C193.027 51.9013 193.798 51.7423 194.58 51.7423C195.363 51.7423 196.134 51.9013 196.834 52.2067L198.675 53.14C199.239 53.4609 199.721 53.8785 200.094 54.3674C200.467 54.8563 200.722 55.4064 200.845 55.9843Z" fill="#455A64"/>
<path d="M306.21 77.033C306.159 76.4451 304.906 70.2127 304.049 66.7438L295.64 68.9487L296.986 73.836L303.956 79.7156C304.655 79.609 305.28 79.2703 305.7 78.7704C306.12 78.2704 306.303 77.6479 306.21 77.033Z" fill="#FFA8A7"/>
<path d="M299.18 59.365H272.425V34.1124C272.425 32.8104 272.718 31.5212 273.288 30.3183C273.858 29.1154 274.694 28.0225 275.747 27.1019C276.8 26.1812 278.051 25.4509 279.427 24.9527C280.803 24.4544 282.278 24.198 283.768 24.198H287.846C289.335 24.198 290.81 24.4544 292.186 24.9527C293.563 25.4509 294.813 26.1812 295.866 27.1019C296.92 28.0225 297.755 29.1154 298.325 30.3183C298.895 31.5212 299.189 32.8104 299.189 34.1124V59.365H299.18Z" fill="#263238"/>
<path d="M265.673 63.8922L261.704 70.2348L267.876 74.8576L273.518 67.0304L265.673 63.8922Z" fill="#F28F8F"/>
<path d="M260.3 71.2196C259.459 73.2187 257.441 76.3642 259.779 77.9296C262.116 79.4951 268.633 77.6136 268.633 77.6136L260.3 71.2196Z" fill="#F28F8F"/>
<path d="M280.539 49.7373C276.612 49.7373 272.282 51.0234 270.794 53.7133C269.305 56.4032 264.647 64.7962 264.647 64.7962C264.647 64.7962 268.12 69.2059 273.636 68.9266L280.539 49.7373Z" fill="#EBEBEB"/>
<path d="M274.931 161.684C273.462 163.186 271.832 164.562 270.062 165.792C269.778 165.966 269.547 166.198 269.389 166.468C269.179 166.916 268.868 168.012 271.189 168.607C272.361 168.904 273.593 168.976 274.801 168.819C276.008 168.661 277.162 168.278 278.185 167.696C280.001 166.586 279.959 164.454 281.649 163.154C282.902 162.198 284.524 161.889 285.517 160.669C286.206 159.817 285.945 158.737 285.517 157.399C285.012 155.929 284.751 154.841 284.197 154.981L284.331 155.657C283.692 156.657 280.127 157.127 278.445 156.51C277.376 158.286 276.203 160.013 274.931 161.684Z" fill="#263238"/>
<path d="M273.417 163.154C273.947 162.687 274.45 162.196 274.922 161.684C275.918 160.425 276.825 159.115 277.638 157.759C278.092 156.948 278.242 156.033 278.067 155.143L277.579 151.578L283.726 150.784L284.289 155.65C284.491 156.76 283.499 157.788 281.724 159.273C279.95 160.758 277.781 164.131 276.141 165.035C274.502 165.939 273.299 165.954 272.559 165.564C271.819 165.175 271.735 164.851 273.417 163.154Z" fill="#FFA8A7"/>
<path d="M293.799 162.602V161.867C293.462 162.749 291.882 166.542 289.502 168.482C287.602 169.996 285.012 171.745 284.356 173.428C283.7 175.111 287.955 175.773 289.729 175.501C292.101 175.141 294.27 174.108 295.901 172.561C296.927 171.473 297.583 170.172 298.306 169.312C299.029 168.453 300.71 167.49 301.106 166.49C301.221 165.561 301.103 164.62 300.761 163.734C300.475 162.801 300.181 161.779 299.811 161.867V162.419C298.956 163.006 297.896 163.32 296.809 163.308C295.926 163.345 293.79 163.19 293.799 162.602Z" fill="#263238"/>
<path d="M287.778 169.768C288.367 169.312 288.964 168.864 289.502 168.438C291.104 166.953 292.35 165.204 293.168 163.293C293.587 162.415 293.801 161.473 293.799 160.522V157.531H299.811V162.419V162.551C299.517 163.639 296.759 166.549 295.186 168.43C294.144 169.702 292.142 171.311 289.754 171.591C287.467 171.885 286.315 171.238 287.778 169.768Z" fill="#FFA8A7"/>
<path d="M298.642 80.8988C303.309 89.799 298.474 121.159 298.474 121.159C298.617 122.629 300.5 125.444 301.207 131.808C302.047 139.319 299.903 158.178 299.903 158.178C298.987 158.644 297.954 158.908 296.894 158.945C295.834 158.982 294.78 158.792 293.824 158.391C293.824 158.391 288.09 129.986 287.013 122.511C286.072 115.992 284.491 105.189 284.491 105.189L282.111 122.43C282.111 122.43 283.204 126.539 283.532 129.324C284.154 134.469 284.104 152.027 284.104 152.027C282.135 153.029 279.826 153.395 277.579 153.063C277.579 153.063 271.744 126.024 270.113 120.909C269.381 118.609 269.045 92.1287 271.954 79.598L298.642 80.8988Z" fill="#60ACAC"/>
<path opacity="0.2" d="M284.499 105.189L282.818 94.0616C280.271 93.9608 277.805 93.2516 275.687 92.0111C277.403 93.4352 279.439 94.5315 281.666 95.2302L283.347 104.66L282.876 116.683L284.499 105.189Z" fill="black"/>
<path d="M290.393 49.9724C292.11 50.3355 293.71 51.0313 295.077 52.0083C296.444 52.9854 297.541 54.2187 298.289 55.6168C299.379 57.744 299.478 60.1586 298.566 62.3489L294.362 72.8879C294.362 72.8879 299.895 80.7077 299.895 85.1321C290.646 89.6446 275.729 88.1748 270.979 85.2423C270.844 84.4559 271.971 75.2471 271.719 71.1976C271.449 66.8835 270.768 62.0108 271.542 59.343C272.988 54.3894 275.687 49.7373 281.06 49.7373L290.393 49.9724Z" fill="#F5F5F5"/>
<path d="M291.915 49.9724C295.48 50.4134 300.719 51.0454 302.527 58.4537C304.334 65.8619 304.881 68.5812 304.881 68.5812C304.881 68.5812 301.955 71.5577 296.035 71.5209L294.194 65.8251L291.915 49.9724Z" fill="#F5F5F5"/>
<path d="M289.923 56.2268C291.165 56.2268 292.356 55.7955 293.234 55.0278C294.113 54.2601 294.606 53.2189 294.606 52.1332V40.205H289.923V56.2268Z" fill="#263238"/>
<path d="M276.822 28.9531C275.41 29.688 273.661 32.7895 273.829 39.3011C273.98 44.8205 276.024 46.1875 277.058 46.577C278.092 46.9665 280.068 46.7313 281.994 46.4521V49.7666C281.994 49.7666 279.328 52.4712 279.471 53.9926C279.614 55.5139 283.314 55.8667 285.811 54.3821C287.425 53.3655 288.81 52.0973 289.897 50.6412V42.623C290.1 42.8402 290.35 43.0201 290.632 43.1523C290.915 43.2845 291.225 43.3662 291.544 43.3929C291.863 43.4196 292.185 43.3906 292.491 43.3076C292.798 43.2247 293.082 43.0894 293.328 42.9096C295.455 41.6749 295.539 38.6176 294.295 37.5225C293.05 36.4274 290.393 36.7876 289.897 38.2574C287.369 38.1633 284.908 37.5219 282.733 36.3907C281.151 35.6415 279.792 34.5783 278.766 33.2865C277.739 31.9948 277.073 30.5105 276.822 28.9531Z" fill="#FFA8A7"/>
<path d="M280.884 37.9194C280.882 38.1011 280.958 38.2767 281.096 38.4124C281.235 38.5482 281.425 38.6343 281.632 38.6543C281.845 38.6548 282.051 38.5844 282.207 38.4576C282.363 38.3307 282.458 38.1567 282.473 37.9708C282.488 37.8747 282.48 37.7769 282.45 37.6835C282.42 37.5902 282.367 37.5034 282.297 37.4287C282.226 37.354 282.138 37.2931 282.038 37.2497C281.939 37.2064 281.831 37.1816 281.72 37.177C281.609 37.1724 281.498 37.188 281.394 37.2229C281.291 37.2578 281.197 37.3112 281.118 37.3797C281.039 37.4481 280.978 37.5302 280.938 37.6206C280.897 37.711 280.879 37.8077 280.884 37.9047V37.9194Z" fill="#263238"/>
<path d="M280.673 42.623L278.824 43.1375C278.857 43.2454 278.916 43.3463 278.995 43.4343C279.074 43.5223 279.173 43.5955 279.285 43.6496C279.397 43.7037 279.52 43.7376 279.647 43.7494C279.775 43.7612 279.903 43.7505 280.026 43.7181C280.275 43.644 280.481 43.4886 280.602 43.2845C280.723 43.0803 280.748 42.8433 280.673 42.623Z" fill="#F28F8F"/>
<path d="M274.376 35.788L275.982 34.8106C275.914 34.7163 275.824 34.635 275.719 34.5718C275.614 34.5085 275.496 34.4646 275.371 34.4426C275.246 34.4206 275.117 34.421 274.992 34.4439C274.867 34.4667 274.749 34.5114 274.645 34.5754C274.429 34.7077 274.28 34.908 274.23 35.1342C274.18 35.3604 274.232 35.5948 274.376 35.788Z" fill="#263238"/>
<path d="M274.746 37.4123C274.744 37.5473 274.788 37.6797 274.872 37.7931C274.956 37.9065 275.076 37.9959 275.217 38.0504C275.358 38.1048 275.515 38.1219 275.667 38.0994C275.82 38.077 275.961 38.016 276.074 37.9241C276.187 37.8322 276.267 37.7133 276.304 37.5821C276.34 37.4509 276.332 37.3133 276.28 37.1861C276.228 37.059 276.135 36.9479 276.012 36.8666C275.888 36.7853 275.741 36.7374 275.586 36.7288C275.373 36.7283 275.168 36.7986 275.012 36.9255C274.856 37.0524 274.76 37.2264 274.746 37.4123Z" fill="#263238"/>
<path d="M278.487 37.0154L278.361 41.1972L275.847 40.5137L278.487 37.0154Z" fill="#F28F8F"/>
<path d="M281.994 46.4521C284.02 46.2242 288.199 45.1733 288.855 43.7254C288.591 44.4552 288.078 45.0966 287.383 45.5628C286.139 46.4962 281.994 47.5545 281.994 47.5545V46.4521Z" fill="#F28F8F"/>
<path d="M270.054 71.227C268.902 69.3529 268.616 69.2647 267.926 68.8605C267.237 68.4562 263.041 67.8977 261.301 67.7727C259.249 67.6184 258.517 67.9491 259.089 69.4925C260.308 72.7924 263.47 78.9806 264.302 79.9507C264.841 80.5828 264.588 81.1928 267.271 81.6779C269.389 82.06 272.66 82.4642 273.451 82.5083C274.241 82.5524 275.351 82.7215 274.636 80.6783C273.726 78.3643 272.673 76.0949 271.483 73.8801C270.592 72.2044 270.054 71.227 270.054 71.227Z" fill="#263238"/>
<path d="M297.019 73.8581C297.019 73.8581 279.858 75.203 277.445 74.5489C275.031 73.8948 274.022 72.6895 272.501 71.5356C270.979 70.3818 269.919 70.6611 269.919 71.0212C270.23 71.5577 271.122 73.2922 271.475 73.8801C271.937 74.6592 269.869 74.7106 267.321 74.1961C264.773 73.6817 263.747 72.3808 263.117 73.1452C262.486 73.9095 264.529 77.6136 268.767 79.0247C273.005 80.4358 276.15 79.4951 279.656 79.62C283.162 79.745 299.163 81.0899 304.04 79.7817C304.167 79.1011 304.077 78.4031 303.78 77.7642C303.483 77.1252 302.992 76.5697 302.359 76.1584C300.775 75.0845 298.958 74.302 297.019 73.8581Z" fill="#FFA8A7"/>
<path d="M295.674 69.6689C294.871 67.7773 294.186 65.8489 293.622 63.8922C293.622 63.8922 293.959 68.1917 295.346 70.5067L295.674 69.6689Z" fill="#E0E0E0"/>
</svg>
