<svg width="370" height="349" viewBox="0 0 370 349" fill="none" xmlns="http://www.w3.org/2000/svg">
<path d="M17.8905 161.373C21.0384 161.142 27.2318 157.661 27.2318 157.653C27.2318 157.645 23.7298 154.229 23.478 154.038C20.5898 151.863 13.751 149.378 10.4694 151.744C9.93303 152.152 9.48778 152.67 9.16271 153.264C8.83763 153.858 8.64004 154.514 8.58285 155.191C8.52566 155.867 8.61015 156.548 8.83081 157.19C9.05147 157.831 9.40333 158.418 9.86339 158.912C11.7443 161.07 15.2148 161.572 17.8905 161.373Z" fill="#60ACAC"/>
<path d="M29.6085 178.576C32.4652 177.548 37.2028 172.929 37.5726 172.563C40.1786 175.306 42.9599 177.874 45.8988 180.248C47.6065 181.634 49.3693 182.988 51.1479 184.31C50.2507 183.832 49.4323 183.402 49.3142 183.354C45.9617 182.032 38.7137 181.459 36.164 184.62C35.7552 185.157 35.4627 185.775 35.3056 186.434C35.1484 187.093 35.1301 187.778 35.2519 188.444C35.3736 189.11 35.6327 189.743 36.0122 190.302C36.3917 190.86 36.8832 191.331 37.4546 191.685C39.8155 193.278 43.3096 192.832 45.8437 191.924C48.3777 191.016 52.5251 187.145 53.6032 186.11L55.6651 187.623C58.9782 190.012 62.2993 192.402 65.4786 194.831C66.604 195.691 67.6821 196.575 68.7603 197.459C67.9733 197.029 67.2729 196.663 67.1863 196.663C63.8338 195.332 56.5858 194.767 54.0361 197.929C53.6285 198.466 53.337 199.084 53.1806 199.743C53.0241 200.401 53.0061 201.086 53.1278 201.752C53.2495 202.418 53.5081 203.05 53.8869 203.609C54.2657 204.167 54.7562 204.639 55.3267 204.993C57.6876 206.586 61.1818 206.14 63.7158 205.232C66.2498 204.324 70.0116 200.828 71.2865 199.601C72.3567 200.541 73.4428 201.481 74.4343 202.437C75.1033 203.106 75.7958 203.703 76.4254 204.412L78.3377 206.459C79.5103 207.813 80.6986 209.19 81.8319 210.536C82.6188 211.46 83.3271 212.36 84.059 213.268C82.9572 212.4 80.7537 210.751 80.5491 210.632C77.4406 208.808 70.3578 207.136 67.3673 209.835C66.8847 210.303 66.5044 210.868 66.2512 211.493C65.9981 212.119 65.8776 212.791 65.8976 213.467C65.9176 214.143 66.0777 214.807 66.3675 215.416C66.6573 216.025 67.0703 216.566 67.5798 217.003C69.6889 218.931 73.1909 219.026 75.8351 218.517C78.7469 217.959 83.9173 214.295 84.5627 213.834C85.7667 215.331 86.9236 216.804 88.0017 218.206C90.882 221.981 93.2823 225.374 95.1474 228.042L97.5083 226.775C95.5409 224.044 92.9754 220.595 89.859 216.709C88.647 215.179 87.317 213.571 85.9241 211.93C87.2402 210.363 88.4647 208.72 89.5914 207.008C92.4638 208.036 98.3582 207.884 99.1216 207.86C99.3026 209.78 99.4679 211.651 99.5938 213.435C99.9401 218.055 100.105 222.1 100.192 225.342L102.773 223.972C102.608 220.93 102.364 217.306 101.986 213.228C101.805 211.269 101.569 209.19 101.309 207.048C102.057 206.833 108.132 205.033 110.383 203.066C112.429 201.298 114.546 198.47 114.381 195.595C114.364 194.918 114.206 194.251 113.917 193.639C113.628 193.027 113.215 192.484 112.705 192.044C112.195 191.605 111.599 191.279 110.957 191.088C110.314 190.897 109.638 190.845 108.974 190.936C105.04 191.589 101.892 198.223 101.317 201.823C101.317 202.038 101.191 204.38 101.16 205.861C101.05 204.985 100.947 204.141 100.829 203.241C100.593 201.465 100.302 199.697 100.042 197.801C99.8692 196.886 99.6882 195.962 99.5072 195.038C99.3262 194.114 99.0587 193.15 98.8383 192.195C98.2796 189.996 97.6106 187.798 96.8866 185.592C98.4606 185.385 103.867 184.549 106.165 183.107C108.463 181.666 110.966 179.205 111.233 176.338C111.317 175.665 111.26 174.982 111.067 174.333C110.873 173.685 110.547 173.084 110.109 172.571C109.671 172.058 109.131 171.644 108.525 171.356C107.919 171.068 107.26 170.912 106.59 170.898C102.561 170.898 98.4606 177.015 97.3903 180.455C97.3194 180.67 96.8315 183.251 96.6033 184.676C96.1547 183.354 95.714 182.032 95.2261 180.694C93.8017 176.879 92.2435 173.064 90.701 169.249C90.2288 168.087 89.7803 166.916 89.3159 165.745C89.859 165.673 96.3593 164.829 98.9249 163.212C101.215 161.779 103.733 159.31 103.993 156.443C104.077 155.771 104.02 155.088 103.827 154.44C103.633 153.791 103.306 153.191 102.868 152.679C102.43 152.167 101.891 151.753 101.285 151.466C100.678 151.179 100.019 151.024 99.3498 151.011C95.3205 151.011 91.2283 157.12 90.1501 160.568C90.0715 160.831 89.3632 164.55 89.2294 165.498C88.2142 162.926 87.2305 160.353 86.3569 157.773C85.1495 154.349 84.1586 150.851 83.3901 147.3C83.6419 147.3 90.4256 146.408 93.0619 144.759C95.3442 143.326 97.8625 140.857 98.1222 137.99C98.2074 137.318 98.1518 136.635 97.959 135.986C97.7663 135.337 97.4407 134.737 97.0035 134.223C96.5662 133.71 96.0271 133.296 95.4212 133.008C94.8154 132.719 94.1563 132.563 93.4869 132.55C89.4497 132.55 85.3575 138.667 84.2793 142.107C84.2006 142.386 83.4452 146.384 83.3586 147.117C83.3114 146.91 83.2484 146.695 83.2091 146.487C82.5651 142.855 82.2438 139.171 82.249 135.481C82.249 133.442 82.3119 131.499 82.4378 129.595C83.7206 129.595 89.5206 129.372 92.094 128.154C94.6673 126.935 97.2958 124.809 97.8625 121.981C98.0194 121.323 98.0375 120.638 97.9158 119.972C97.794 119.306 97.535 118.673 97.1557 118.115C96.7764 117.557 96.2852 117.086 95.7141 116.732C95.143 116.379 94.5048 116.151 93.841 116.064C89.8275 115.65 85.0978 121.241 83.6576 124.578C83.5789 124.753 82.9808 126.688 82.5637 128.106C82.6346 127.254 82.6897 126.37 82.7762 125.549C83.0831 122.483 83.5632 119.688 83.9882 117.219C84.2479 115.817 84.5154 114.559 84.7751 113.38C86.0185 112.687 90.9843 109.844 92.6448 107.622C94.3054 105.4 95.7376 102.23 94.9585 99.4583C94.7987 98.7967 94.5022 98.1768 94.0887 97.6394C93.6752 97.102 93.154 96.6593 92.5593 96.3403C91.9646 96.0214 91.31 95.8334 90.6384 95.7888C89.9668 95.7442 89.2935 95.8439 88.6628 96.0815C84.9089 97.5787 83.2563 104.747 83.4924 108.378C83.4924 108.697 84.3895 113.571 84.4603 113.539L84.5312 113.491C84.2636 114.622 83.9882 115.881 83.7442 117.171C83.2563 119.632 82.7211 122.419 82.3434 125.494C81.8947 128.802 81.6319 132.134 81.5564 135.473C81.4763 139.204 81.7239 142.936 82.2962 146.623V146.75C81.7689 145.683 80.1792 142.768 80.0376 142.537C77.96 139.559 72.223 135.035 68.3747 136.253C67.7418 136.474 67.1618 136.826 66.6721 137.288C66.1824 137.749 65.794 138.31 65.5321 138.933C65.2702 139.556 65.1406 140.228 65.1517 140.905C65.1629 141.582 65.3144 142.25 65.5967 142.864C66.7142 145.516 69.862 147.085 72.4669 147.746C75.4102 148.486 81.9106 147.276 82.3906 147.18C83.0645 150.923 83.9847 154.616 85.145 158.235C85.8139 160.353 86.5458 162.456 87.3092 164.558C86.8213 163.651 86.3727 162.846 86.3019 162.735C84.2243 159.756 78.4951 155.24 74.6468 156.451C74.0132 156.67 73.4324 157.022 72.942 157.483C72.4516 157.945 72.0628 158.505 71.8007 159.129C71.5386 159.752 71.4093 160.425 71.421 161.102C71.4327 161.78 71.5853 162.447 71.8688 163.061C72.9784 165.713 76.1263 167.282 78.7312 167.943C81.3361 168.604 86.9157 167.688 88.3716 167.426C88.6706 168.222 88.9697 169.018 89.2687 169.815C90.7246 173.67 92.1963 177.5 93.5262 181.315C93.9984 182.653 94.4076 183.991 94.8247 185.297C94.3919 184.501 94.0378 183.816 93.9512 183.705C91.8815 180.726 86.1445 176.202 82.2962 177.421C81.6618 177.639 81.0801 177.99 80.5891 178.451C80.098 178.912 79.7086 179.473 79.4464 180.097C79.1842 180.721 79.0551 181.394 79.0675 182.072C79.0798 182.75 79.2334 183.417 79.5182 184.031C80.6357 186.675 83.7757 188.252 86.3806 188.905C88.9854 189.558 94.022 188.746 95.7612 188.443C96.1469 189.821 96.5482 191.207 96.8551 192.569C97.044 193.501 97.2958 194.385 97.4375 195.332C97.5791 196.28 97.7602 197.188 97.9175 198.104C98.1615 199.88 98.4133 201.712 98.6101 203.448C98.7517 204.659 98.8619 205.837 98.9799 206.976C98.5314 205.638 97.587 202.994 97.4847 202.819C95.9711 200.003 93.768 197.628 91.0866 195.922C90.9362 195.599 90.7543 195.292 90.5436 195.006C90.1592 194.446 89.6621 193.974 89.0849 193.623C88.5077 193.271 87.8635 193.047 87.1946 192.965C86.5257 192.883 85.8472 192.945 85.2037 193.147C84.5602 193.349 83.9663 193.687 83.4609 194.138C80.5019 196.901 81.5013 204.189 83.0123 207.494C83.0989 207.693 84.3029 209.7 85.082 210.95C84.5076 210.281 83.9646 209.628 83.3743 208.951C82.2096 207.605 81.0134 206.291 79.7228 204.874L77.7632 202.867C77.1258 202.182 76.3624 201.545 75.662 200.868C74.0015 199.346 72.2387 197.889 70.4365 196.455C71.6012 195.42 75.6856 191.677 76.8189 189.2C77.9521 186.723 78.6997 183.267 77.354 180.726C77.0574 180.118 76.6377 179.58 76.1223 179.147C75.6069 178.714 75.0073 178.396 74.3624 178.213C73.7175 178.029 73.0417 177.985 72.3789 178.084C71.7161 178.182 71.0811 178.42 70.5152 178.783C67.1785 181.06 67.0762 188.419 68.0756 191.916C68.1307 192.139 69.1302 194.568 69.7046 195.898C68.6108 195.046 67.5247 194.194 66.3994 193.365C63.1334 190.976 59.7495 188.666 56.3891 186.349L53.3199 184.198C53.737 183.832 58.6949 179.499 59.9619 176.72C61.0794 174.251 61.8349 170.787 60.4892 168.246C60.1825 167.66 59.7598 167.144 59.2474 166.731C58.735 166.318 58.144 166.016 57.5112 165.844C56.8783 165.672 56.2173 165.634 55.5693 165.732C54.9213 165.83 54.3003 166.062 53.7449 166.414C50.4002 168.692 50.2979 176.051 51.2974 179.547C51.3761 179.81 52.8084 183.306 53.2176 184.174C50.9747 182.582 48.7476 180.989 46.6149 179.34C43.722 177.11 40.9774 174.688 38.3989 172.093C38.5878 171.925 43.7818 167.426 45.0803 164.582C46.2057 162.105 46.9533 158.641 45.6155 156.1C45.3188 155.493 44.8992 154.955 44.3838 154.522C43.8684 154.089 43.2688 153.77 42.6239 153.587C41.9789 153.404 41.3031 153.36 40.6404 153.458C39.9776 153.556 39.3426 153.794 38.7767 154.157C35.4321 156.443 35.3298 163.794 36.3292 167.298C36.4079 167.569 37.9582 171.328 38.2888 171.989C38.1392 171.838 37.9661 171.702 37.8245 171.543C35.3054 168.874 33.0272 165.982 31.0172 162.902C29.8839 161.213 28.9002 159.541 27.9716 157.884C29.0261 157.152 33.7952 153.727 35.2353 151.29C36.6755 148.853 37.7458 145.603 36.6912 142.927C36.4624 142.29 36.1036 141.709 35.6383 141.221C35.173 140.733 34.6116 140.35 33.9904 140.096C33.3692 139.842 32.7022 139.724 32.0327 139.748C31.3632 139.772 30.7062 139.938 30.1043 140.235C26.5393 142.131 25.6343 149.434 26.2481 152.978C26.2481 153.177 26.8383 155.121 27.2633 156.538C26.8541 155.782 26.4213 155.017 26.0514 154.285C24.6348 151.553 23.5016 148.964 22.5179 146.663C21.9749 145.349 21.5027 144.146 21.0777 143.023C21.7309 141.749 24.3279 136.604 24.501 133.824C24.6742 131.045 24.1312 127.604 21.9749 125.725C21.4819 125.263 20.8981 124.912 20.2617 124.694C19.6253 124.477 18.9507 124.398 18.282 124.462C17.6133 124.527 16.9657 124.734 16.3815 125.069C15.7973 125.405 15.2898 125.862 14.8921 126.409C12.5863 129.754 15.1125 136.652 17.253 139.551C17.4419 139.805 20.8338 143.381 20.8652 143.31V143.238C21.2587 144.329 21.6916 145.492 22.1874 146.758C23.116 149.092 24.1941 151.712 25.5556 154.484C27.0286 157.493 28.6735 160.413 30.482 163.228C32.4538 166.39 34.6975 169.37 37.187 172.132L37.2814 172.22C36.2584 171.631 33.3466 170.07 33.0948 169.974C29.7423 168.652 22.4943 168.079 19.9445 171.24C19.5255 171.778 19.2242 172.399 19.0605 173.063C18.8969 173.727 18.8746 174.418 18.9951 175.092C19.1157 175.765 19.3764 176.405 19.7598 176.968C20.1433 177.532 20.6408 178.006 21.2194 178.361C23.596 179.953 27.0744 179.484 29.6085 178.576Z" fill="#60ACAC"/>
<path d="M81.942 128.982C82.0207 128.982 80.8954 124.203 80.7852 123.869C79.5654 120.444 75.2134 114.551 71.1841 114.686C70.5155 114.729 69.8633 114.914 69.2698 115.228C68.6763 115.543 68.1548 115.98 67.7392 116.512C67.3236 117.043 67.0232 117.658 66.8574 118.315C66.6917 118.972 66.6643 119.656 66.7771 120.325C67.1627 123.176 69.7833 125.533 72.1285 126.863C74.8829 128.464 81.942 128.982 81.942 128.982Z" fill="#60ACAC"/>
<path d="M323.77 283.075C321.409 282.9 316.829 280.319 316.829 280.311C316.829 280.304 319.434 277.763 319.623 277.62C321.763 276.027 326.855 274.155 329.295 275.915C329.692 276.219 330.021 276.604 330.261 277.045C330.501 277.485 330.647 277.973 330.69 278.474C330.732 278.976 330.67 279.481 330.507 279.957C330.344 280.432 330.083 280.868 329.743 281.235C328.343 282.852 325.769 283.218 323.77 283.075Z" fill="#60ACAC"/>
<path d="M315.066 295.866C312.942 295.069 309.424 291.669 309.14 291.398C307.205 293.437 305.138 295.344 302.955 297.108C301.688 298.144 300.374 299.139 299.02 300.127C299.689 299.768 300.295 299.45 300.381 299.418C302.876 298.43 308.251 298.008 310.156 300.358C310.46 300.757 310.678 301.216 310.796 301.706C310.913 302.196 310.927 302.705 310.838 303.201C310.748 303.696 310.556 304.168 310.274 304.583C309.993 304.999 309.628 305.35 309.203 305.614C307.433 306.793 304.851 306.458 302.963 305.789C301.074 305.12 297.997 302.237 297.194 301.465L295.691 302.604C293.228 304.388 290.765 306.156 288.396 307.963C287.562 308.601 286.759 309.262 285.964 309.915C286.554 309.596 287.066 309.333 287.145 309.301C289.639 308.314 295.014 307.892 296.919 310.241C297.223 310.641 297.44 311.1 297.557 311.591C297.674 312.081 297.688 312.59 297.597 313.086C297.507 313.582 297.314 314.053 297.032 314.469C296.749 314.884 296.384 315.235 295.959 315.498C294.196 316.676 291.607 316.342 289.726 315.673C287.845 315.004 285.051 312.4 284.099 311.492C283.312 312.185 282.525 312.885 281.738 313.594C281.242 314.088 280.723 314.534 280.251 315.06L278.834 316.589C277.961 317.584 277.064 318.62 276.237 319.615C275.663 320.308 275.12 320.977 274.577 321.646C275.403 321.001 277.04 319.775 277.189 319.687C279.503 318.333 284.768 317.083 286.995 319.121C287.355 319.469 287.639 319.89 287.828 320.356C288.016 320.822 288.106 321.323 288.09 321.827C288.075 322.33 287.954 322.825 287.737 323.278C287.52 323.731 287.211 324.133 286.83 324.458C285.256 325.891 282.659 325.963 280.691 325.588C278.535 325.166 274.687 322.451 274.207 322.1C273.31 323.215 272.452 324.314 271.657 325.358C269.509 328.161 267.722 330.654 266.337 332.669L264.574 331.729C266.046 329.69 267.95 327.126 270.264 324.243C271.169 323.104 272.153 321.909 273.184 320.69C272.221 319.521 271.328 318.295 270.508 317.019C268.375 317.815 263.992 317.672 263.425 317.648C263.284 319.082 263.158 320.475 263.063 321.789C262.812 325.222 262.686 328.233 262.623 330.646L260.702 329.626C260.828 327.357 261.009 324.665 261.301 321.662C261.434 320.205 261.607 318.66 261.796 317.067C261.245 316.907 256.728 315.569 255.052 314.12C253.533 312.806 251.959 310.711 252.085 308.545C252.097 308.041 252.214 307.546 252.428 307.091C252.642 306.636 252.949 306.232 253.327 305.905C253.706 305.579 254.149 305.336 254.626 305.194C255.104 305.052 255.605 305.013 256.099 305.08C259.058 305.566 261.387 310.496 261.796 313.18C261.796 313.331 261.883 315.076 261.906 316.175C261.993 315.53 262.064 314.9 262.158 314.231C262.331 312.909 262.544 311.595 262.772 310.186C262.898 309.509 263.032 308.824 263.166 308.131C263.299 307.438 263.496 306.729 263.661 306.02C264.079 304.388 264.574 302.747 265.117 301.114C263.968 300.955 259.923 300.318 258.216 299.266C256.508 298.215 254.651 296.36 254.454 294.233C254.391 293.733 254.432 293.226 254.576 292.743C254.719 292.261 254.961 291.814 255.287 291.433C255.612 291.051 256.012 290.743 256.463 290.529C256.913 290.314 257.403 290.198 257.901 290.187C260.899 290.187 263.945 294.735 264.74 297.315C264.795 297.482 265.157 299.402 265.338 300.461C265.668 299.474 265.999 298.494 266.361 297.514C267.423 294.679 268.58 291.844 269.721 289.008C270.075 288.14 270.414 287.272 270.76 286.404C270.351 286.348 265.519 285.719 263.614 284.525C261.914 283.457 260.041 281.618 259.845 279.491C259.783 278.991 259.825 278.483 259.97 278.001C260.114 277.518 260.357 277.072 260.683 276.691C261.009 276.309 261.41 276.001 261.86 275.787C262.311 275.572 262.801 275.456 263.299 275.445C266.29 275.445 269.335 279.993 270.138 282.613C270.193 282.804 270.721 285.568 270.823 286.277C271.57 284.365 272.31 282.446 272.956 280.534C273.845 277.952 274.565 275.312 275.112 272.634C274.923 272.634 269.886 271.973 267.927 270.746C266.227 269.679 264.354 267.847 264.157 265.713C264.095 265.213 264.138 264.705 264.282 264.223C264.427 263.74 264.67 263.294 264.995 262.912C265.321 262.531 265.722 262.223 266.173 262.008C266.624 261.794 267.114 261.678 267.612 261.667C270.61 261.667 273.656 266.215 274.451 268.835C274.514 269.034 275.073 272.021 275.143 272.554C275.143 272.403 275.222 272.244 275.246 272.084C275.726 269.385 275.965 266.648 275.962 263.905C275.962 262.384 275.915 260.934 275.82 259.525C274.868 259.525 270.524 259.365 268.643 258.457C266.762 257.55 264.779 255.965 264.354 253.87C264.237 253.38 264.223 252.871 264.314 252.375C264.404 251.879 264.597 251.409 264.879 250.993C265.161 250.578 265.526 250.227 265.951 249.964C266.376 249.701 266.851 249.531 267.344 249.466C270.327 249.163 273.845 253.313 274.915 255.797C274.978 255.933 275.419 257.39 275.702 258.418C275.655 257.788 275.608 257.127 275.545 256.522C275.316 254.236 274.97 252.166 274.648 250.326C274.451 249.291 274.254 248.351 274.065 247.475C273.144 246.957 269.454 244.846 268.218 243.19C266.982 241.533 265.92 239.208 266.495 237.121C266.615 236.632 266.835 236.175 267.141 235.778C267.447 235.381 267.832 235.053 268.272 234.816C268.711 234.58 269.195 234.44 269.691 234.404C270.188 234.369 270.686 234.44 271.153 234.612C273.939 235.727 275.175 241.055 274.994 243.755C274.994 243.994 274.325 247.618 274.278 247.594H274.223C274.427 248.43 274.632 249.33 274.836 250.326C275.198 252.158 275.623 254.228 275.875 256.514C276.201 258.973 276.385 261.449 276.426 263.929C276.489 266.709 276.308 269.489 275.883 272.236V272.331C276.277 271.535 277.457 269.361 277.567 269.201C279.141 266.987 283.375 263.626 286.224 264.526C286.695 264.689 287.127 264.951 287.491 265.294C287.856 265.636 288.145 266.053 288.341 266.517C288.536 266.98 288.632 267.48 288.624 267.983C288.616 268.487 288.504 268.983 288.294 269.44C287.459 271.407 285.146 272.578 283.186 273.072C280.998 273.621 276.19 272.722 275.812 272.65C275.307 275.432 274.621 278.178 273.758 280.869C273.262 282.462 272.719 284.007 272.184 285.568C272.546 284.899 272.877 284.294 272.932 284.214C274.506 282 278.74 278.639 281.589 279.539C282.06 279.703 282.492 279.965 282.857 280.309C283.221 280.652 283.511 281.07 283.706 281.534C283.901 281.998 283.998 282.498 283.989 283.002C283.981 283.507 283.868 284.004 283.658 284.461C282.824 286.428 280.51 287.599 278.551 288.085C276.591 288.57 272.468 287.901 271.382 287.702L270.721 289.494C269.635 292.361 268.541 295.213 267.573 298.04C267.219 299.036 266.912 300.031 266.605 301.027C266.927 300.429 267.203 299.928 267.258 299.856C268.792 297.642 273.058 294.281 275.915 295.181C276.385 295.345 276.816 295.607 277.18 295.95C277.544 296.293 277.832 296.71 278.026 297.173C278.221 297.637 278.317 298.136 278.308 298.639C278.3 299.143 278.187 299.639 277.976 300.095C277.15 302.07 274.829 303.233 272.869 303.726C270.909 304.22 267.195 303.599 265.896 303.376C265.613 304.403 265.322 305.431 265.109 306.442C264.968 307.135 264.779 307.796 264.677 308.497C264.574 309.198 264.441 309.883 264.322 310.56C264.141 311.882 263.953 313.244 263.811 314.542C263.701 315.442 263.622 316.302 263.536 317.162C263.866 316.167 264.566 314.231 264.637 314.072C265.766 311.979 267.405 310.214 269.398 308.943C269.479 308.678 269.587 308.421 269.721 308.179C270.006 307.766 270.374 307.419 270.8 307.16C271.226 306.9 271.702 306.735 272.196 306.674C272.689 306.613 273.19 306.658 273.665 306.806C274.141 306.954 274.58 307.202 274.954 307.533C277.158 309.588 276.418 315.004 275.293 317.465C275.23 317.608 274.333 319.098 273.758 320.029C274.175 319.536 274.585 319.05 275.025 318.548C275.891 317.545 276.78 316.565 277.74 315.514L279.196 314.024C279.668 313.515 280.235 313.037 280.77 312.535C282.006 311.404 283.312 310.321 284.658 309.254C283.792 308.457 280.723 305.71 279.936 303.862C279.149 302.014 278.535 299.45 279.535 297.562C279.754 297.109 280.066 296.709 280.449 296.386C280.832 296.064 281.278 295.827 281.758 295.691C282.238 295.555 282.741 295.523 283.234 295.597C283.726 295.671 284.198 295.849 284.618 296.121C287.105 297.809 287.176 303.288 286.436 305.885C286.389 306.044 285.649 307.852 285.224 308.832C286.011 308.202 286.846 307.565 287.68 306.952C290.112 305.176 292.622 303.456 295.125 301.735L297.407 300.143C297.092 299.872 293.409 296.654 292.472 294.568C291.63 292.736 291.072 290.155 292.071 288.268C292.291 287.815 292.602 287.414 292.985 287.092C293.369 286.77 293.815 286.533 294.294 286.396C294.774 286.26 295.277 286.228 295.77 286.302C296.263 286.376 296.735 286.555 297.155 286.826C299.642 288.523 299.713 293.994 298.973 296.59C298.918 296.79 297.847 299.386 297.541 300.031C299.217 298.852 300.869 297.642 302.451 296.431C304.603 294.773 306.646 292.975 308.566 291.047C308.416 290.92 304.56 287.575 303.592 285.472C302.758 283.633 302.199 281.052 303.199 279.173C303.419 278.72 303.73 278.32 304.113 277.997C304.496 277.674 304.942 277.437 305.421 277.3C305.901 277.164 306.403 277.131 306.896 277.203C307.389 277.276 307.862 277.453 308.283 277.723C310.762 279.419 310.84 284.891 310.101 287.487C310.038 287.694 308.889 290.49 308.645 290.976L308.991 290.649C310.86 288.66 312.553 286.51 314.051 284.222C314.885 282.972 315.625 281.721 316.31 280.495C315.523 279.945 311.989 277.397 310.911 275.589C309.833 273.781 309.046 271.36 309.833 269.376C310.002 268.902 310.268 268.47 310.614 268.106C310.959 267.743 311.376 267.458 311.838 267.268C312.3 267.079 312.796 266.99 313.294 267.008C313.792 267.025 314.28 267.148 314.728 267.369C317.38 268.779 318.049 274.211 317.593 276.879C317.593 277.022 317.152 278.472 316.806 279.523C317.112 278.958 317.427 278.392 317.711 277.843C318.765 275.812 319.599 273.86 320.331 272.18C320.74 271.2 321.118 270.308 321.409 269.472C320.921 268.532 318.993 264.693 318.86 262.639C318.726 260.584 319.135 258.011 320.74 256.618C321.106 256.276 321.538 256.017 322.01 255.855C322.481 255.694 322.98 255.636 323.476 255.683C323.971 255.73 324.451 255.883 324.884 256.13C325.317 256.378 325.694 256.715 325.99 257.119C327.705 259.612 325.824 264.741 324.211 266.892C324.069 267.083 321.551 269.743 321.52 269.687V269.631C321.228 270.428 320.906 271.312 320.536 272.252C319.843 273.98 319.041 275.931 318.025 277.994C316.958 280.228 315.765 282.397 314.453 284.493C312.989 286.846 311.319 289.061 309.463 291.111L309.392 291.183C310.179 290.745 312.328 289.59 312.54 289.51C315.027 288.523 320.41 288.101 322.314 290.45C322.618 290.849 322.836 291.309 322.953 291.799C323.07 292.29 323.083 292.799 322.993 293.295C322.902 293.791 322.71 294.262 322.427 294.677C322.145 295.093 321.779 295.443 321.354 295.706C319.536 296.869 316.939 296.535 315.066 295.866Z" fill="#60ACAC"/>
<path d="M276.159 259.023C276.103 259.023 276.945 255.439 277.016 255.216C277.929 252.675 281.164 248.287 284.154 248.399C284.651 248.429 285.136 248.566 285.578 248.799C286.019 249.032 286.407 249.357 286.716 249.753C287.025 250.148 287.248 250.605 287.371 251.093C287.494 251.582 287.513 252.091 287.428 252.588C287.145 254.706 285.193 256.458 283.454 257.446C281.408 258.609 276.159 259.023 276.159 259.023Z" fill="#60ACAC"/>
<path d="M321.819 148.822C337.357 147.564 348.945 133.797 347.702 118.072C346.459 102.347 332.855 90.6196 317.317 91.8776C301.779 93.1356 290.191 106.903 291.434 122.628C292.677 138.353 306.281 150.08 321.819 148.822Z" stroke="#263238" stroke-width="0.72648" stroke-linecap="round" stroke-linejoin="round"/>
<path d="M318.057 128.186C316.552 128.186 315.109 127.581 314.045 126.504C312.981 125.427 312.383 123.966 312.383 122.443V104.205C312.382 103.45 312.528 102.703 312.812 102.005C313.097 101.308 313.515 100.674 314.042 100.139C314.569 99.6054 315.195 99.1817 315.884 98.8927C316.573 98.6036 317.311 98.4548 318.057 98.4548C318.803 98.4548 319.542 98.6035 320.231 98.8925C320.921 99.1815 321.547 99.605 322.075 100.139C322.602 100.673 323.021 101.307 323.306 102.005C323.592 102.702 323.739 103.45 323.739 104.205V122.419C323.742 123.176 323.597 123.926 323.313 124.626C323.029 125.326 322.611 125.962 322.082 126.498C321.554 127.034 320.927 127.459 320.236 127.748C319.545 128.038 318.805 128.187 318.057 128.186Z" stroke="#263238" stroke-miterlimit="10"/>
<path d="M318.104 132.295C315.444 132.293 312.893 131.222 311.011 129.319C309.13 127.415 308.072 124.833 308.07 122.141V113.587C308.07 113.308 308.18 113.041 308.374 112.844C308.569 112.646 308.833 112.536 309.109 112.536C309.384 112.536 309.649 112.646 309.844 112.844C310.038 113.041 310.148 113.308 310.148 113.587V122.141C310.213 124.233 311.08 126.218 312.566 127.675C314.051 129.132 316.039 129.947 318.108 129.947C320.177 129.947 322.165 129.132 323.65 127.675C325.136 126.218 326.003 124.233 326.068 122.141V113.587C326.068 113.308 326.178 113.041 326.372 112.844C326.567 112.646 326.832 112.536 327.107 112.536C327.383 112.536 327.647 112.646 327.842 112.844C328.036 113.041 328.146 113.308 328.146 113.587V122.141C328.142 124.834 327.082 127.415 325.2 129.319C323.317 131.223 320.765 132.293 318.104 132.295Z" stroke="#263238" stroke-miterlimit="10"/>
<path d="M318.104 143.23C317.829 143.23 317.564 143.119 317.37 142.922C317.175 142.725 317.065 142.458 317.065 142.179V131.244C317.065 130.965 317.175 130.698 317.37 130.5C317.564 130.303 317.829 130.193 318.104 130.193C318.38 130.193 318.644 130.303 318.839 130.5C319.033 130.698 319.143 130.965 319.143 131.244V142.179C319.143 142.458 319.033 142.725 318.839 142.922C318.644 143.119 318.38 143.23 318.104 143.23Z" stroke="#263238" stroke-miterlimit="10"/>
<path d="M325.029 143.788H311.179C310.903 143.788 310.639 143.677 310.444 143.48C310.249 143.282 310.14 143.015 310.14 142.736C310.14 142.457 310.249 142.19 310.444 141.993C310.639 141.796 310.903 141.685 311.179 141.685H325.029C325.166 141.685 325.301 141.712 325.427 141.765C325.553 141.818 325.667 141.895 325.764 141.993C325.86 142.091 325.937 142.206 325.989 142.334C326.041 142.462 326.068 142.598 326.068 142.736C326.068 142.874 326.041 143.011 325.989 143.139C325.937 143.266 325.86 143.382 325.764 143.48C325.667 143.577 325.553 143.655 325.427 143.708C325.301 143.76 325.166 143.788 325.029 143.788Z" stroke="#263238" stroke-miterlimit="10"/>
<path d="M65.255 68.798C78.5719 63.1743 84.8625 47.6902 79.3056 34.2132C73.7487 20.7363 58.4485 14.37 45.1316 19.9937C31.8147 25.6174 25.524 41.1015 31.081 54.5785C36.6379 68.0554 51.9381 74.4217 65.255 68.798Z" stroke="#263238" stroke-width="0.724166" stroke-linecap="round" stroke-linejoin="round"/>
<path d="M71.3101 36.6519L63.6764 41.1119V37.4563C63.6764 36.6114 63.3448 35.8011 62.7545 35.2037C62.1641 34.6062 61.3634 34.2706 60.5286 34.2706H43.3254C42.4905 34.2706 41.6898 34.6062 41.0995 35.2037C40.5092 35.8011 40.1775 36.6114 40.1775 37.4563V51.5053C40.1775 52.3502 40.5092 53.1605 41.0995 53.758C41.6898 54.3554 42.4905 54.691 43.3254 54.691H60.56C61.3949 54.691 62.1956 54.3554 62.7859 53.758C63.3763 53.1605 63.7079 52.3502 63.7079 51.5053V47.8497L71.3415 52.3097L71.3101 36.6519Z" stroke="#263238" stroke-miterlimit="10"/>
<path d="M320.811 215.227C328.952 215.227 335.551 208.549 335.551 200.31C335.551 192.072 328.952 185.393 320.811 185.393C312.671 185.393 306.071 192.072 306.071 200.31C306.071 208.549 312.671 215.227 320.811 215.227Z" stroke="#263238" stroke-width="0.724166" stroke-linecap="round" stroke-linejoin="round"/>
<path d="M329.901 195.938L325.596 198.454V196.392C325.596 196.158 325.551 195.928 325.462 195.712C325.374 195.497 325.245 195.301 325.082 195.136C324.919 194.971 324.726 194.84 324.513 194.751C324.3 194.662 324.072 194.616 323.841 194.616H314.114C313.884 194.616 313.655 194.662 313.443 194.751C313.23 194.84 313.036 194.971 312.873 195.136C312.71 195.301 312.581 195.497 312.493 195.712C312.405 195.928 312.359 196.158 312.359 196.392V204.316C312.359 204.549 312.405 204.78 312.493 204.996C312.581 205.211 312.71 205.407 312.873 205.572C313.036 205.737 313.23 205.868 313.443 205.957C313.655 206.046 313.884 206.092 314.114 206.092H323.841C324.072 206.092 324.3 206.046 324.513 205.957C324.726 205.868 324.919 205.737 325.082 205.572C325.245 205.407 325.374 205.211 325.462 204.996C325.551 204.78 325.596 204.549 325.596 204.316V202.253L329.901 204.77V195.938Z" stroke="#263238" stroke-miterlimit="10"/>
<path d="M52.182 309.561C61.1921 307.409 66.7723 298.273 64.6457 289.154C62.5192 280.036 53.4911 274.389 44.481 276.541C35.4709 278.693 29.8907 287.829 32.0173 296.948C34.1438 306.066 43.1719 311.714 52.182 309.561Z" stroke="#263238" stroke-width="0.724166" stroke-linecap="round" stroke-linejoin="round"/>
<path d="M56.8298 289.462H39.8627C39.3925 289.461 38.9278 289.565 38.5018 289.767C38.0758 289.968 37.699 290.263 37.3983 290.628C37.0976 290.994 36.8805 291.423 36.7623 291.884C36.6442 292.344 36.628 292.826 36.7148 293.293L37.2028 295.977C37.2363 296.163 37.3338 296.33 37.4779 296.45C37.622 296.569 37.8034 296.633 37.9897 296.63H43.0736C43.2823 296.63 43.4825 296.546 43.63 296.397C43.7776 296.248 43.8605 296.045 43.8605 295.834V292.911H52.8084V295.834C52.8084 296.045 52.8913 296.248 53.0389 296.397C53.1865 296.546 53.3866 296.63 53.5954 296.63H58.7107C58.897 296.633 59.0784 296.569 59.2225 296.45C59.3666 296.33 59.4641 296.163 59.4976 295.977L59.9856 293.293C60.0726 292.825 60.0562 292.343 59.9376 291.882C59.819 291.42 59.6011 290.991 59.2996 290.625C58.998 290.259 58.6203 289.965 58.1933 289.764C57.7663 289.563 57.3007 289.46 56.8298 289.462Z" stroke="#263238" stroke-miterlimit="10"/>
<path d="M253.879 16.7412H197.509L195.148 21.1375C193.882 23.4475 192.029 25.3726 189.78 26.7131C187.532 28.0535 184.969 28.7605 182.359 28.7605C179.75 28.7605 177.187 28.0535 174.939 26.7131C172.69 25.3726 170.837 23.4475 169.571 21.1375L167.21 16.7412H110.879C109.467 16.7222 108.066 16.9849 106.754 17.5142C105.443 18.0435 104.247 18.8291 103.236 19.826C102.224 20.8229 101.417 22.0117 100.86 23.3245C100.302 24.6373 100.006 26.0483 99.9873 27.4771V321.248C100.006 322.676 100.302 324.087 100.86 325.399C101.417 326.712 102.225 327.9 103.236 328.896C104.248 329.893 105.443 330.677 106.755 331.206C108.066 331.734 109.468 331.996 110.879 331.976H253.879C255.29 331.995 256.691 331.732 258.001 331.203C259.312 330.675 260.506 329.89 261.517 328.893C262.528 327.897 263.335 326.709 263.892 325.397C264.449 324.086 264.745 322.676 264.763 321.248V27.4771C264.746 26.0487 264.45 24.6379 263.894 23.3251C263.337 22.0124 262.531 20.8235 261.52 19.8265C260.509 18.8294 259.314 18.0438 258.003 17.5144C256.692 16.985 255.291 16.7222 253.879 16.7412Z" fill="#D6D6D6"/>
<path d="M253.431 20.9622H242.067V27.27H253.431V20.9622Z" stroke="#263238" stroke-width="0.821067" stroke-linecap="round" stroke-linejoin="round"/>
<path d="M250.928 20.9622H242.067V27.27H250.928V20.9622Z" fill="#263238" stroke="#263238" stroke-width="0.725073" stroke-linecap="round" stroke-linejoin="round"/>
<path d="M255.005 22.7303H253.407V25.5099H255.005V22.7303Z" fill="#263238" stroke="#263238" stroke-width="0.725073" stroke-linecap="round" stroke-linejoin="round"/>
<path d="M111.453 22.9215H109.368V26.5373H111.453V22.9215Z" fill="#263238" stroke="#263238" stroke-width="0.883086" stroke-linecap="round" stroke-linejoin="round"/>
<path d="M114.727 21.6472H112.642V26.5293H114.727V21.6472Z" fill="#263238" stroke="#263238" stroke-width="0.883086" stroke-linecap="round" stroke-linejoin="round"/>
<path d="M118.001 20.1499H115.916V26.5372H118.001V20.1499Z" fill="#263238" stroke="#263238" stroke-width="0.883086" stroke-linecap="round" stroke-linejoin="round"/>
<path d="M105.024 29.4283H259.695" stroke="#263238" stroke-linecap="round" stroke-linejoin="round"/>
<path opacity="0.2" d="M211.824 216.056C211.351 212.464 210.761 208.474 210.297 205.447C214.276 200.113 216.869 193.853 217.836 187.241C218.308 183.569 218.222 177.078 217.883 169.895C219.028 169.005 219.905 167.811 220.417 166.446C222.046 162.464 227.547 150.087 221.204 146.392C220.122 145.652 218.805 145.351 217.513 145.548C217.925 142.845 218.665 140.205 219.717 137.687C223.054 130.177 229.365 123.049 226.8 112.536C224.234 102.023 213.059 96.3921 209.675 100.9C206.291 105.408 206.338 109.159 200.035 104.277C193.731 99.3946 184.831 92.6409 171.106 96.3921C157.381 100.143 155.894 103.56 162.575 110.656C162.575 110.656 140.689 109.533 135.126 121.918C131.191 130.615 137.723 134.501 141.823 136.691C141.301 136.934 140.874 137.346 140.611 137.862L129.593 159.477L132.355 130.567C132.428 129.728 132.183 128.893 131.671 128.23C131.159 127.568 130.417 127.126 129.595 126.996C128.773 126.865 127.934 127.055 127.245 127.528C126.557 128 126.071 128.719 125.886 129.539L119.292 158.832L117.08 158.545L118.465 129.205C118.509 128.375 118.237 127.56 117.705 126.927C117.173 126.294 116.422 125.891 115.606 125.802C114.79 125.712 113.97 125.942 113.317 126.445C112.663 126.947 112.224 127.684 112.091 128.504L107.637 157.972L103.623 157.741V134.326C103.621 133.863 103.521 133.405 103.329 132.985C103.137 132.564 102.859 132.19 102.512 131.888C102.165 131.586 101.758 131.363 101.318 131.234C100.878 131.105 100.417 131.073 99.9637 131.14V232.183L100.507 231.164L102.592 232.797L113.531 217.577L109.274 215.371C113.114 208.864 118.623 199.108 118.623 199.108C118.623 199.108 129.318 197.172 132.395 191.637C135.472 186.102 137.51 179.157 141.24 174.004C144.971 168.851 148.417 166.741 149.779 162.591C149.782 162.552 149.782 162.512 149.779 162.472C151.518 166.637 154.792 170.715 156.232 172.594C158.215 175.175 160.836 176.218 161.977 174.904C162.079 175.7 162.182 176.537 162.292 177.365C163.59 183.92 165.078 189.996 166.62 193.246C168.056 196.05 169.914 198.611 172.129 200.836C171.469 200.437 170.681 200.318 169.934 200.503C169.188 200.687 168.543 201.162 168.139 201.823C167.367 202.758 166.753 203.816 166.321 204.953C163.441 211.874 156.98 220.085 157.515 224.984C157.515 225.127 157.515 225.342 157.562 225.597C150.102 226.25 131.049 228.113 128.161 230.447C126.091 232.127 111.768 246.001 99.9558 257.526V314.669L125.029 299.251L129.318 332H242.012V220.34C229.42 218.039 212.752 215.88 212.752 215.88L211.824 216.056ZM150.33 153.456C148.756 155.049 148.457 157.088 148.842 159.286C147.544 158.936 145.348 159.684 142.948 161.548C138.502 165.012 134.063 168.811 134.063 168.811L142.334 147.65L142.539 147.825C145.781 150.215 149.708 151.401 151.384 152.548C151.008 152.82 150.655 153.123 150.33 153.456Z" fill="black"/>
<path d="M147.426 334.771H266.691V216.342C253.384 213.905 235.716 211.619 235.716 211.619L180.463 221.647C180.463 221.647 149.976 223.956 146.167 227.046C142.358 230.136 99.2318 272.339 99.2318 272.339V326.672L142.854 299.848L147.426 334.771Z" fill="white"/>
<path d="M223.203 324.553C223.121 324.637 223.075 324.75 223.075 324.868C223.075 324.986 223.121 325.099 223.203 325.182L229.861 331.554C229.943 331.63 230.049 331.672 230.16 331.673C230.281 331.673 230.397 331.624 230.483 331.538C230.565 331.454 230.611 331.341 230.611 331.223C230.611 331.105 230.565 330.992 230.483 330.909L223.825 324.537C223.784 324.496 223.734 324.464 223.68 324.442C223.626 324.421 223.569 324.41 223.511 324.412C223.453 324.413 223.396 324.427 223.343 324.451C223.29 324.475 223.243 324.51 223.203 324.553Z" fill="#B2B2B2"/>
<path d="M231.655 276.186C231.573 276.103 231.461 276.056 231.344 276.056C231.228 276.056 231.116 276.103 231.034 276.186L226.69 280.893C226.698 280.832 226.693 280.769 226.675 280.71C226.658 280.651 226.628 280.597 226.587 280.55C226.505 280.467 226.393 280.421 226.276 280.421C226.16 280.421 226.048 280.467 225.966 280.55L221.661 284.533C221.58 284.617 221.536 284.73 221.536 284.847C221.536 284.964 221.58 285.077 221.661 285.162C221.743 285.245 221.855 285.292 221.972 285.292C222.088 285.292 222.2 285.245 222.283 285.162L225.777 281.976L225.58 282.191C225.524 282.255 225.488 282.334 225.475 282.418C225.462 282.502 225.473 282.588 225.507 282.666C225.541 282.744 225.597 282.81 225.667 282.857C225.737 282.904 225.818 282.93 225.903 282.932C225.961 282.932 226.02 282.921 226.074 282.897C226.128 282.874 226.177 282.84 226.217 282.796L231.726 276.847C231.769 276.801 231.801 276.746 231.821 276.686C231.841 276.626 231.848 276.563 231.841 276.5C231.834 276.437 231.814 276.377 231.782 276.322C231.75 276.268 231.707 276.222 231.655 276.186Z" fill="#B2B2B2"/>
<path d="M226.996 245.715C226.924 245.624 226.819 245.565 226.704 245.552C226.589 245.538 226.474 245.571 226.383 245.643L220.504 250.421C220.415 250.496 220.359 250.603 220.347 250.719C220.335 250.835 220.369 250.951 220.441 251.043C220.481 251.095 220.532 251.137 220.591 251.166C220.65 251.195 220.714 251.21 220.779 251.21C220.879 251.209 220.976 251.175 221.055 251.114L226.926 246.336C227.016 246.262 227.073 246.156 227.087 246.04C227.1 245.924 227.067 245.807 226.996 245.715Z" fill="#B2B2B2"/>
<path d="M147.867 239.948L153.375 234.007C153.456 233.923 153.501 233.81 153.501 233.693C153.501 233.575 153.456 233.462 153.375 233.378C153.292 233.297 153.18 233.251 153.065 233.251C152.949 233.251 152.837 233.297 152.754 233.378L147.245 239.327C147.203 239.367 147.17 239.416 147.148 239.469C147.125 239.522 147.114 239.58 147.114 239.638C147.114 239.696 147.125 239.753 147.148 239.807C147.17 239.86 147.203 239.908 147.245 239.948C147.323 240.025 147.427 240.068 147.536 240.068C147.596 240.072 147.657 240.064 147.714 240.044C147.771 240.023 147.823 239.991 147.867 239.948Z" fill="#B2B2B2"/>
<path d="M218.426 267.441C218.487 267.442 218.547 267.429 218.603 267.404C218.658 267.38 218.708 267.343 218.749 267.298C218.79 267.258 218.823 267.209 218.846 267.156C218.868 267.103 218.88 267.045 218.88 266.987C218.88 266.929 218.868 266.872 218.846 266.818C218.823 266.765 218.79 266.717 218.749 266.677L212.099 260.305C212.013 260.233 211.903 260.196 211.791 260.203C211.68 260.209 211.575 260.259 211.498 260.341C211.421 260.423 211.377 260.531 211.376 260.645C211.376 260.758 211.417 260.867 211.493 260.95L218.151 267.322C218.226 267.392 218.324 267.434 218.426 267.441Z" fill="#B2B2B2"/>
<path d="M205.504 283.29H205.559C205.617 283.282 205.672 283.263 205.722 283.234C205.772 283.204 205.816 283.165 205.851 283.118C205.886 283.072 205.912 283.019 205.926 282.962C205.941 282.905 205.945 282.846 205.937 282.788L204.765 273.677C204.757 273.62 204.739 273.564 204.711 273.514C204.682 273.463 204.644 273.419 204.599 273.384C204.554 273.348 204.502 273.322 204.446 273.307C204.391 273.292 204.333 273.288 204.277 273.295C204.22 273.302 204.165 273.321 204.115 273.35C204.065 273.378 204.022 273.417 203.987 273.463C203.952 273.509 203.926 273.561 203.911 273.617C203.896 273.673 203.892 273.731 203.899 273.789L205.071 282.908C205.087 283.013 205.138 283.11 205.218 283.18C205.297 283.25 205.399 283.289 205.504 283.29Z" fill="#B2B2B2"/>
<path d="M214.979 314.255L209.471 320.197C209.429 320.237 209.396 320.285 209.374 320.338C209.351 320.392 209.34 320.449 209.34 320.507C209.34 320.565 209.351 320.623 209.374 320.676C209.396 320.729 209.429 320.778 209.471 320.818C209.551 320.896 209.658 320.939 209.77 320.937C209.828 320.937 209.887 320.925 209.941 320.902C209.995 320.879 210.044 320.845 210.084 320.802L215.593 314.853C215.672 314.767 215.713 314.654 215.709 314.537C215.704 314.421 215.654 314.311 215.57 314.231C215.485 314.152 215.373 314.11 215.258 314.115C215.143 314.119 215.034 314.17 214.956 314.255H214.979Z" fill="#B2B2B2"/>
<path d="M146.765 284.875C146.819 284.886 146.876 284.886 146.93 284.875C146.984 284.853 147.033 284.821 147.074 284.78C147.115 284.738 147.148 284.689 147.17 284.635C147.192 284.581 147.203 284.523 147.202 284.464C147.201 284.405 147.189 284.347 147.166 284.294L143.231 274.784C143.185 274.677 143.099 274.592 142.992 274.548C142.884 274.503 142.765 274.502 142.657 274.545C142.55 274.591 142.465 274.678 142.42 274.787C142.376 274.896 142.376 275.018 142.421 275.127L146.356 284.636C146.394 284.712 146.452 284.775 146.525 284.817C146.598 284.859 146.681 284.88 146.765 284.875Z" fill="#B2B2B2"/>
<path d="M232.529 315.394C232.628 315.393 232.725 315.36 232.804 315.299L238.675 310.52C238.729 310.487 238.775 310.444 238.811 310.391C238.847 310.339 238.871 310.28 238.882 310.217C238.894 310.155 238.891 310.091 238.876 310.029C238.861 309.968 238.833 309.91 238.794 309.86C238.755 309.811 238.706 309.77 238.65 309.741C238.594 309.712 238.533 309.695 238.47 309.692C238.408 309.689 238.345 309.699 238.287 309.723C238.228 309.746 238.176 309.782 238.132 309.827L232.253 314.606C232.209 314.642 232.171 314.687 232.144 314.738C232.116 314.789 232.099 314.845 232.093 314.903C232.088 314.961 232.093 315.019 232.11 315.075C232.126 315.13 232.154 315.182 232.19 315.227C232.23 315.28 232.281 315.322 232.34 315.351C232.399 315.38 232.463 315.395 232.529 315.394Z" fill="#B2B2B2"/>
<path d="M231.364 258.107C231.319 257.999 231.233 257.913 231.126 257.868C231.018 257.823 230.897 257.823 230.79 257.868C230.737 257.891 230.688 257.924 230.648 257.965C230.608 258.007 230.576 258.056 230.555 258.11C230.534 258.164 230.523 258.222 230.524 258.281C230.526 258.339 230.538 258.396 230.561 258.449L234.496 267.959C234.53 268.039 234.586 268.107 234.657 268.155C234.728 268.203 234.812 268.229 234.898 268.23C234.955 268.242 235.014 268.242 235.071 268.23C235.177 268.182 235.26 268.095 235.304 267.987C235.348 267.879 235.349 267.757 235.307 267.648L231.364 258.107Z" fill="#B2B2B2"/>
<path d="M233.308 309.445H233.371C233.427 309.437 233.481 309.418 233.531 309.389C233.58 309.36 233.623 309.321 233.657 309.276C233.691 309.23 233.716 309.177 233.731 309.122C233.745 309.066 233.749 309.008 233.741 308.951L232.568 299.832C232.553 299.716 232.493 299.611 232.401 299.54C232.31 299.468 232.195 299.436 232.08 299.45C232.023 299.458 231.968 299.477 231.918 299.506C231.868 299.536 231.824 299.575 231.789 299.621C231.754 299.668 231.728 299.721 231.713 299.778C231.698 299.834 231.695 299.893 231.703 299.951L232.875 309.063C232.89 309.168 232.942 309.265 233.022 309.335C233.101 309.405 233.203 309.444 233.308 309.445Z" fill="#B2B2B2"/>
<path d="M100.845 323.597C100.886 323.557 100.919 323.509 100.942 323.456C100.965 323.402 100.976 323.345 100.976 323.287C100.976 323.229 100.965 323.171 100.942 323.118C100.919 323.065 100.886 323.016 100.845 322.976C100.805 322.935 100.757 322.903 100.704 322.881C100.652 322.858 100.595 322.847 100.538 322.847C100.481 322.847 100.425 322.858 100.372 322.881C100.319 322.903 100.271 322.935 100.231 322.976L99.2003 323.924V325.119L100.845 323.597Z" fill="#B2B2B2"/>
<path d="M123.345 276.998C123.304 277.039 123.272 277.087 123.25 277.141C123.228 277.194 123.217 277.251 123.217 277.309C123.217 277.367 123.228 277.424 123.25 277.477C123.272 277.53 123.304 277.579 123.345 277.62L130.002 283.991C130.083 284.068 130.19 284.111 130.301 284.11C130.361 284.111 130.42 284.098 130.474 284.073C130.528 284.049 130.577 284.012 130.616 283.967C130.657 283.926 130.689 283.878 130.711 283.825C130.733 283.771 130.744 283.714 130.744 283.656C130.744 283.599 130.733 283.542 130.711 283.488C130.689 283.435 130.657 283.387 130.616 283.346L123.958 276.974C123.872 276.899 123.761 276.859 123.647 276.863C123.533 276.868 123.425 276.916 123.345 276.998Z" fill="#B2B2B2"/>
<path d="M131.812 257.207C131.773 257.165 131.725 257.132 131.672 257.109C131.62 257.086 131.563 257.074 131.505 257.074C131.448 257.074 131.391 257.086 131.339 257.109C131.286 257.132 131.238 257.165 131.199 257.207L126.886 261.189C126.804 261.273 126.758 261.386 126.758 261.504C126.758 261.622 126.804 261.735 126.886 261.818C126.927 261.864 126.977 261.9 127.032 261.925C127.088 261.949 127.148 261.962 127.209 261.962C127.317 261.962 127.422 261.919 127.5 261.842L131.812 257.86C131.857 257.818 131.892 257.768 131.916 257.712C131.94 257.655 131.953 257.595 131.953 257.534C131.953 257.472 131.94 257.412 131.916 257.355C131.892 257.299 131.857 257.249 131.812 257.207Z" fill="#B2B2B2"/>
<path d="M139.706 244.576C139.738 244.656 139.794 244.725 139.866 244.773C139.937 244.821 140.021 244.847 140.107 244.846C140.162 244.858 140.218 244.858 140.272 244.846C140.326 244.825 140.375 244.792 140.416 244.751C140.457 244.71 140.49 244.661 140.512 244.606C140.534 244.552 140.545 244.494 140.544 244.435C140.544 244.377 140.531 244.319 140.508 244.265L136.983 235.703L136.298 236.349L139.706 244.576Z" fill="#B2B2B2"/>
<path d="M138.879 262.36C138.807 262.269 138.702 262.21 138.587 262.197C138.472 262.184 138.357 262.216 138.266 262.288L132.395 267.067C132.305 267.14 132.247 267.247 132.234 267.363C132.22 267.479 132.253 267.596 132.324 267.688C132.365 267.741 132.418 267.784 132.478 267.813C132.538 267.842 132.604 267.856 132.67 267.855C132.768 267.855 132.862 267.822 132.938 267.76L138.816 262.981C138.861 262.945 138.898 262.9 138.926 262.849C138.953 262.798 138.971 262.742 138.976 262.684C138.982 262.626 138.977 262.568 138.96 262.512C138.943 262.456 138.916 262.405 138.879 262.36Z" fill="#B2B2B2"/>
<path d="M137.856 297.188L133.544 301.17C133.462 301.254 133.415 301.367 133.415 301.485C133.415 301.602 133.462 301.716 133.544 301.799C133.585 301.845 133.634 301.881 133.69 301.906C133.746 301.93 133.806 301.943 133.866 301.943C133.975 301.941 134.079 301.898 134.158 301.823L138.47 297.841C138.552 297.757 138.598 297.644 138.598 297.526C138.598 297.408 138.552 297.295 138.47 297.212C138.431 297.169 138.385 297.135 138.333 297.111C138.281 297.086 138.225 297.073 138.168 297.07C138.111 297.068 138.054 297.077 138.001 297.098C137.947 297.118 137.898 297.148 137.856 297.188Z" fill="#B2B2B2"/>
<path d="M117.395 299.935H117.45C117.51 299.929 117.567 299.91 117.619 299.88C117.672 299.85 117.717 299.809 117.753 299.761C117.789 299.712 117.815 299.657 117.829 299.598C117.844 299.539 117.846 299.478 117.836 299.418L116.663 290.307C116.644 290.194 116.582 290.093 116.491 290.024C116.4 289.956 116.286 289.926 116.174 289.94C116.061 289.955 115.959 290.012 115.887 290.101C115.816 290.19 115.781 290.304 115.79 290.418L116.97 299.537C116.978 299.646 117.026 299.747 117.105 299.821C117.184 299.895 117.288 299.936 117.395 299.935Z" fill="#B2B2B2"/>
<path d="M109.966 273.383C110.027 273.383 110.087 273.37 110.142 273.346C110.198 273.321 110.248 273.285 110.289 273.239L115.798 267.298C115.869 267.21 115.904 267.098 115.897 266.984C115.889 266.871 115.839 266.765 115.757 266.687C115.674 266.61 115.566 266.568 115.453 266.569C115.341 266.57 115.233 266.614 115.152 266.693L109.643 272.642C109.603 272.683 109.571 272.731 109.549 272.784C109.527 272.838 109.516 272.895 109.516 272.952C109.516 273.01 109.527 273.067 109.549 273.121C109.571 273.174 109.603 273.222 109.643 273.263C109.687 273.303 109.738 273.335 109.793 273.355C109.848 273.376 109.907 273.385 109.966 273.383Z" fill="#B2B2B2"/>
<path d="M99.2318 290.346L101.215 288.754C101.289 288.676 101.333 288.573 101.339 288.465C101.344 288.357 101.31 288.251 101.244 288.166C101.177 288.081 101.083 288.024 100.977 288.005C100.872 287.985 100.764 288.005 100.672 288.061L99.2318 289.224V290.346Z" fill="#B2B2B2"/>
<path d="M105.087 300.278C105.033 300.299 104.985 300.331 104.944 300.371C104.902 300.412 104.87 300.46 104.848 300.514C104.826 300.567 104.815 300.625 104.815 300.683C104.816 300.741 104.828 300.798 104.851 300.851L108.786 310.369C108.821 310.449 108.878 310.517 108.951 310.565C109.023 310.614 109.108 310.639 109.195 310.639C109.249 310.65 109.306 310.65 109.36 310.639C109.413 310.618 109.461 310.585 109.501 310.545C109.542 310.504 109.574 310.456 109.596 310.402C109.618 310.349 109.629 310.292 109.629 310.234C109.629 310.177 109.618 310.119 109.596 310.066L105.661 300.549C105.644 300.491 105.615 300.437 105.576 300.391C105.536 300.346 105.488 300.309 105.434 300.283C105.38 300.258 105.321 300.244 105.261 300.243C105.201 300.242 105.142 300.254 105.087 300.278Z" fill="#B2B2B2"/>
<path d="M153.124 325.971C153.204 326.048 153.311 326.091 153.423 326.09C153.481 326.091 153.54 326.079 153.594 326.056C153.648 326.033 153.697 325.998 153.737 325.955L159.246 320.006C159.324 319.92 159.366 319.806 159.361 319.69C159.357 319.573 159.307 319.464 159.223 319.384C159.138 319.305 159.026 319.263 158.911 319.268C158.796 319.272 158.687 319.323 158.609 319.408L153.1 325.35C153.061 325.392 153.031 325.441 153.011 325.496C152.991 325.55 152.982 325.607 152.984 325.665C152.986 325.723 153 325.78 153.024 325.832C153.048 325.885 153.081 325.932 153.124 325.971Z" fill="#B2B2B2"/>
<path d="M186.719 327.46C186.674 327.354 186.59 327.269 186.484 327.224C186.378 327.18 186.259 327.179 186.153 327.221C186.099 327.243 186.05 327.275 186.009 327.317C185.968 327.358 185.935 327.407 185.913 327.461C185.891 327.516 185.88 327.574 185.881 327.632C185.881 327.691 185.893 327.749 185.917 327.803L188.781 334.771H189.733L186.719 327.46Z" fill="#B2B2B2"/>
<path d="M167.415 329.682C167.332 329.599 167.221 329.552 167.104 329.552C166.988 329.552 166.876 329.599 166.793 329.682C166.711 329.766 166.665 329.879 166.665 329.997C166.665 330.115 166.711 330.228 166.793 330.311L171.444 334.747H172.719L167.415 329.682Z" fill="#B2B2B2"/>
<path d="M239.879 286.492C239.797 286.409 239.685 286.362 239.568 286.362C239.452 286.362 239.34 286.409 239.257 286.492C239.175 286.575 239.129 286.688 239.129 286.806C239.129 286.924 239.175 287.037 239.257 287.121L245.907 293.492C245.991 293.569 246.101 293.612 246.214 293.612C246.308 293.618 246.402 293.593 246.481 293.542C246.56 293.49 246.62 293.414 246.654 293.325C246.687 293.236 246.692 293.139 246.666 293.047C246.641 292.955 246.587 292.874 246.513 292.815L239.879 286.492Z" fill="#B2B2B2"/>
<path d="M203.844 250.039C203.762 249.958 203.651 249.913 203.537 249.913C203.422 249.913 203.312 249.958 203.23 250.039L197.721 255.989C197.68 256.029 197.647 256.077 197.624 256.13C197.602 256.184 197.59 256.241 197.59 256.299C197.59 256.357 197.602 256.415 197.624 256.468C197.647 256.521 197.68 256.57 197.721 256.61C197.802 256.687 197.909 256.73 198.02 256.729C198.08 256.729 198.139 256.717 198.193 256.692C198.247 256.667 198.296 256.631 198.335 256.586L203.844 250.644C203.919 250.562 203.961 250.454 203.961 250.342C203.961 250.23 203.919 250.122 203.844 250.039Z" fill="#B2B2B2"/>
<path d="M167.911 250.836C167.971 250.836 168.032 250.823 168.087 250.799C168.143 250.774 168.193 250.738 168.233 250.692C168.275 250.652 168.308 250.604 168.33 250.551C168.353 250.497 168.364 250.44 168.364 250.382C168.364 250.324 168.353 250.266 168.33 250.213C168.308 250.159 168.275 250.111 168.233 250.071L161.576 243.7C161.536 243.658 161.488 243.624 161.436 243.602C161.383 243.579 161.326 243.567 161.269 243.567C161.211 243.567 161.155 243.579 161.102 243.602C161.049 243.624 161.001 243.658 160.962 243.7C160.921 243.74 160.889 243.789 160.867 243.842C160.845 243.895 160.834 243.953 160.834 244.01C160.834 244.068 160.845 244.125 160.867 244.178C160.889 244.232 160.921 244.28 160.962 244.321L167.62 250.692C167.695 250.776 167.799 250.828 167.911 250.836Z" fill="#B2B2B2"/>
<path d="M166.738 311.428H166.793C166.851 311.42 166.906 311.401 166.956 311.371C167.006 311.342 167.05 311.303 167.085 311.256C167.12 311.21 167.146 311.157 167.16 311.1C167.175 311.043 167.179 310.984 167.171 310.926L165.998 301.807C165.979 301.694 165.917 301.593 165.826 301.525C165.735 301.457 165.621 301.427 165.509 301.441C165.397 301.455 165.294 301.513 165.222 301.602C165.151 301.691 165.116 301.804 165.125 301.919L166.305 311.038C166.315 311.146 166.365 311.247 166.446 311.319C166.526 311.392 166.631 311.43 166.738 311.428Z" fill="#B2B2B2"/>
<path d="M253.777 306.697L249.464 310.679C249.385 310.735 249.326 310.815 249.297 310.908C249.268 311.001 249.27 311.101 249.304 311.192C249.337 311.284 249.4 311.361 249.482 311.412C249.564 311.464 249.66 311.486 249.756 311.476C249.865 311.475 249.971 311.436 250.055 311.364L254.359 307.382C254.445 307.304 254.496 307.195 254.502 307.078C254.508 306.962 254.468 306.847 254.391 306.761C254.353 306.718 254.306 306.683 254.255 306.658C254.203 306.634 254.147 306.619 254.09 306.616C253.975 306.61 253.863 306.651 253.777 306.729V306.697Z" fill="#B2B2B2"/>
<path d="M259.168 284.286C259.123 284.179 259.038 284.095 258.932 284.05C258.827 284.005 258.708 284.004 258.601 284.047C258.547 284.069 258.499 284.101 258.457 284.142C258.416 284.184 258.384 284.233 258.362 284.287C258.34 284.341 258.329 284.399 258.329 284.458C258.33 284.516 258.342 284.574 258.365 284.628L262.3 294.137C262.333 294.219 262.39 294.289 262.463 294.337C262.536 294.385 262.622 294.41 262.709 294.408C262.764 294.42 262.82 294.42 262.874 294.408C262.982 294.363 263.067 294.276 263.111 294.167C263.155 294.058 263.155 293.936 263.111 293.827L259.168 284.286Z" fill="#B2B2B2"/>
<path d="M254.769 271.869C254.733 271.824 254.688 271.786 254.638 271.758C254.587 271.731 254.532 271.713 254.475 271.707C254.418 271.701 254.36 271.707 254.305 271.724C254.25 271.741 254.199 271.769 254.155 271.806L248.276 276.584C248.231 276.62 248.194 276.665 248.167 276.717C248.139 276.768 248.122 276.824 248.116 276.881C248.11 276.939 248.116 276.998 248.132 277.053C248.149 277.109 248.177 277.161 248.213 277.205C248.253 277.258 248.304 277.3 248.363 277.329C248.422 277.358 248.486 277.373 248.552 277.373C248.651 277.373 248.748 277.339 248.827 277.277L254.698 272.498C254.744 272.462 254.782 272.417 254.81 272.365C254.838 272.314 254.856 272.257 254.863 272.199C254.869 272.14 254.864 272.081 254.848 272.025C254.832 271.968 254.805 271.915 254.769 271.869Z" fill="#B2B2B2"/>
<path d="M242.539 322.068C242.433 322.116 242.35 322.203 242.306 322.311C242.262 322.419 242.261 322.541 242.303 322.65L246.238 332.159C246.27 332.24 246.326 332.31 246.397 332.36C246.468 332.409 246.553 332.436 246.639 332.438C246.696 332.449 246.755 332.449 246.812 332.438C246.918 332.392 247.001 332.307 247.045 332.2C247.089 332.092 247.091 331.972 247.048 331.864L243.114 322.347C243.094 322.29 243.064 322.238 243.024 322.194C242.985 322.149 242.937 322.112 242.884 322.087C242.83 322.061 242.772 322.046 242.713 322.043C242.654 322.039 242.595 322.048 242.539 322.068Z" fill="#B2B2B2"/>
<path d="M165.101 278.79C165.173 278.702 165.208 278.59 165.201 278.477C165.193 278.363 165.143 278.257 165.06 278.18C164.978 278.103 164.87 278.06 164.757 278.061C164.645 278.062 164.537 278.106 164.456 278.185L158.947 284.134C158.907 284.175 158.875 284.223 158.853 284.277C158.831 284.33 158.819 284.387 158.819 284.445C158.819 284.503 158.831 284.56 158.853 284.613C158.875 284.666 158.907 284.715 158.947 284.756C159.029 284.831 159.135 284.874 159.246 284.875C159.307 284.875 159.367 284.863 159.423 284.838C159.478 284.813 159.528 284.777 159.569 284.732L165.101 278.79Z" fill="#B2B2B2"/>
<path d="M188.222 273.852C188.15 273.761 188.045 273.703 187.93 273.689C187.815 273.676 187.7 273.709 187.609 273.781L181.738 278.559C181.66 278.614 181.603 278.693 181.574 278.784C181.544 278.875 181.546 278.973 181.577 279.063C181.608 279.154 181.668 279.231 181.746 279.284C181.825 279.337 181.919 279.362 182.013 279.356C182.111 279.356 182.205 279.322 182.281 279.26L188.159 274.482C188.205 274.445 188.244 274.4 188.272 274.348C188.3 274.296 188.318 274.239 188.324 274.181C188.329 274.122 188.323 274.062 188.306 274.006C188.289 273.95 188.26 273.897 188.222 273.852Z" fill="#B2B2B2"/>
<path d="M187.199 308.68L182.895 312.662C182.821 312.721 182.768 312.801 182.743 312.892C182.717 312.983 182.721 313.079 182.753 313.168C182.786 313.257 182.845 313.332 182.923 313.385C183.001 313.437 183.093 313.463 183.186 313.459C183.293 313.458 183.396 313.418 183.477 313.347L187.782 309.365C187.824 309.326 187.859 309.28 187.883 309.228C187.908 309.175 187.922 309.119 187.925 309.061C187.928 309.003 187.919 308.946 187.9 308.891C187.881 308.837 187.851 308.787 187.813 308.744C187.775 308.701 187.729 308.666 187.677 308.641C187.626 308.617 187.57 308.602 187.513 308.599C187.456 308.596 187.399 308.605 187.345 308.624C187.291 308.644 187.242 308.673 187.199 308.712V308.68Z" fill="#B2B2B2"/>
<path d="M171.436 268.628C171.545 268.628 171.65 268.585 171.728 268.508L176.04 264.526C176.122 264.443 176.168 264.33 176.168 264.212C176.168 264.094 176.122 263.981 176.04 263.897C176 263.856 175.952 263.824 175.899 263.801C175.847 263.779 175.79 263.768 175.733 263.768C175.676 263.768 175.62 263.779 175.567 263.801C175.514 263.824 175.466 263.856 175.426 263.897L171.122 267.879C171.048 267.938 170.995 268.018 170.97 268.109C170.944 268.2 170.948 268.296 170.98 268.385C171.013 268.473 171.072 268.549 171.15 268.602C171.227 268.654 171.32 268.68 171.413 268.676L171.436 268.628Z" fill="#B2B2B2"/>
<path d="M192.023 286.006C191.916 286.052 191.831 286.138 191.787 286.247C191.743 286.356 191.743 286.479 191.787 286.587L195.722 296.097C195.755 296.177 195.811 296.246 195.882 296.294C195.954 296.342 196.038 296.368 196.124 296.368C196.178 296.379 196.234 296.379 196.289 296.368C196.343 296.346 196.392 296.313 196.433 296.272C196.474 296.231 196.506 296.182 196.528 296.127C196.55 296.073 196.561 296.015 196.561 295.956C196.56 295.898 196.548 295.84 196.525 295.786L192.59 286.277C192.549 286.166 192.467 286.075 192.361 286.025C192.255 285.974 192.134 285.967 192.023 286.006Z" fill="#B2B2B2"/>
<path d="M176.473 229.069C176.438 229.023 176.394 228.985 176.343 228.956C176.293 228.928 176.238 228.91 176.181 228.903C176.124 228.896 176.066 228.901 176.011 228.917C175.955 228.934 175.904 228.961 175.859 228.998L169.988 233.776C169.898 233.85 169.841 233.956 169.827 234.072C169.814 234.188 169.846 234.305 169.917 234.397C169.959 234.45 170.011 234.493 170.071 234.522C170.131 234.551 170.197 234.565 170.264 234.565C170.361 234.565 170.456 234.531 170.531 234.469L176.41 229.69C176.455 229.654 176.492 229.609 176.52 229.558C176.547 229.507 176.564 229.451 176.57 229.393C176.576 229.335 176.57 229.277 176.554 229.221C176.537 229.166 176.51 229.114 176.473 229.069Z" fill="#B2B2B2"/>
<path d="M180.274 241.223C180.168 241.27 180.084 241.357 180.04 241.465C179.996 241.574 179.996 241.695 180.038 241.804L183.973 251.313C184.006 251.394 184.061 251.462 184.133 251.511C184.204 251.559 184.288 251.585 184.374 251.584C184.429 251.596 184.485 251.596 184.539 251.584C184.593 251.562 184.642 251.53 184.683 251.489C184.724 251.447 184.757 251.398 184.779 251.344C184.801 251.29 184.812 251.232 184.811 251.173C184.811 251.115 184.799 251.057 184.775 251.003L180.841 241.493C180.8 241.382 180.718 241.292 180.612 241.241C180.506 241.191 180.385 241.184 180.274 241.223Z" fill="#B2B2B2"/>
<path d="M176.135 320.547C176.234 320.546 176.331 320.512 176.41 320.451L182.281 315.673C182.371 315.6 182.428 315.494 182.441 315.378C182.453 315.263 182.42 315.147 182.348 315.056C182.276 314.965 182.171 314.907 182.057 314.894C181.942 314.881 181.828 314.915 181.738 314.988L175.859 319.767C175.814 319.803 175.777 319.848 175.75 319.899C175.722 319.95 175.705 320.006 175.699 320.064C175.693 320.122 175.699 320.18 175.715 320.236C175.732 320.291 175.76 320.343 175.796 320.388C175.837 320.439 175.889 320.479 175.947 320.507C176.006 320.535 176.07 320.548 176.135 320.547Z" fill="#B2B2B2"/>
<path d="M154.989 266.645H155.044C155.101 266.637 155.156 266.618 155.206 266.588C155.256 266.559 155.3 266.52 155.335 266.473C155.37 266.426 155.396 266.373 155.411 266.317C155.426 266.26 155.429 266.201 155.421 266.143L154.249 257.032C154.242 256.974 154.223 256.919 154.195 256.868C154.166 256.818 154.128 256.774 154.083 256.738C154.038 256.703 153.986 256.677 153.931 256.662C153.876 256.646 153.818 256.642 153.761 256.65C153.704 256.657 153.649 256.675 153.6 256.704C153.55 256.733 153.506 256.771 153.471 256.817C153.436 256.863 153.41 256.916 153.395 256.971C153.38 257.027 153.376 257.086 153.383 257.143L154.556 266.262C154.568 266.369 154.619 266.468 154.699 266.539C154.779 266.61 154.882 266.647 154.989 266.645Z" fill="#B2B2B2"/>
<path d="M179.361 295.436C179.442 295.513 179.549 295.556 179.66 295.555C179.72 295.555 179.779 295.543 179.833 295.518C179.887 295.493 179.936 295.457 179.975 295.412C180.015 295.371 180.048 295.323 180.069 295.269C180.091 295.216 180.103 295.159 180.103 295.101C180.103 295.043 180.091 294.986 180.069 294.933C180.048 294.88 180.015 294.831 179.975 294.791L173.317 288.419C173.235 288.338 173.125 288.293 173.01 288.293C172.896 288.293 172.786 288.338 172.703 288.419C172.662 288.459 172.629 288.507 172.606 288.561C172.584 288.614 172.572 288.672 172.572 288.73C172.572 288.788 172.584 288.845 172.606 288.899C172.629 288.952 172.662 289 172.703 289.04L179.361 295.436Z" fill="#B2B2B2"/>
<path d="M147.426 334.771H266.691V216.342C253.384 213.905 235.716 211.619 235.716 211.619L180.463 221.647C180.463 221.647 149.976 223.956 146.167 227.046C142.358 230.136 99.2318 272.339 99.2318 272.339V326.672L142.854 299.848L147.426 334.771Z" stroke="#263238" stroke-linecap="round" stroke-linejoin="round"/>
<path d="M224.667 252.492C224.667 252.492 216.286 268.309 212.076 282.191C207.865 296.073 201.058 335.408 201.058 335.408H238.046C238.046 335.408 241.854 286.03 248.331 269.074C254.808 252.118 255.571 249.028 255.571 249.028L224.667 252.492Z" fill="#60ACAC" stroke="#263238" stroke-linecap="round" stroke-linejoin="round"/>
<path d="M187.53 243.445C187.53 243.445 205.63 260.289 226.091 267.083C246.553 273.876 260.427 258.832 261.655 253.655C262.882 248.478 226.965 254.085 211.202 248.765C195.439 243.445 185.775 237.535 187.53 243.445Z" fill="#263238" stroke="#263238" stroke-linecap="round" stroke-linejoin="round"/>
<path d="M193.039 196.193C193.039 196.193 189.607 192.72 186.562 200.047C183.784 206.729 178.039 223.223 177.795 222.419C179.322 227.429 177.008 234.756 190.387 245.165C203.765 255.574 224.911 263.292 236.873 263.292C249.834 263.292 258.593 259.437 261.647 253.655C264.7 247.873 265.07 240.912 265.07 236.301C265.07 231.689 263.929 227.429 261.647 220.874C259.365 214.319 247.93 207.765 242.594 201.592C237.259 195.42 242.177 196.965 231.16 192.696C220.142 188.427 205.976 190.387 201.821 191.151C197.666 191.916 193.039 196.193 193.039 196.193Z" fill="#263238" stroke="#263238" stroke-linecap="round" stroke-linejoin="round"/>
<path d="M192.275 189.638C192.275 189.638 193.802 212.002 194.959 218.182C196.116 224.362 218.969 237.464 226.965 236.691C234.961 235.918 236.11 224.354 235.354 217.027C234.599 209.7 232.301 195.428 232.301 195.428C232.301 195.428 210.966 202.373 203.34 196.224C195.714 190.076 192.275 189.638 192.275 189.638Z" fill="white" stroke="#263238" stroke-linecap="round" stroke-linejoin="round"/>
<path d="M195.148 213.483C205.226 212.062 215.119 209.528 224.651 205.925L232.938 199.554C232.552 197.077 232.285 195.412 232.285 195.412C232.285 195.412 210.95 202.357 203.324 196.209C195.699 190.06 192.307 189.654 192.307 189.654C192.307 189.654 193.338 204.786 194.337 213.547C194.589 213.531 194.864 213.523 195.148 213.483Z" fill="#263238" stroke="#263238" stroke-linecap="round" stroke-linejoin="round"/>
<path d="M259.302 216.979C259.672 220.165 259.404 226.497 252.101 228.201C242.193 230.511 219.331 228.201 203.71 220.484C190.237 213.857 188.663 200.382 188.49 196.742C187.673 197.729 187.021 198.846 186.562 200.047C183.508 207.374 176.678 216.048 177.244 221.256C177.457 223.168 177.032 234.756 190.371 245.149C203.71 255.543 224.895 263.276 236.857 263.276C249.819 263.276 258.578 259.421 261.631 253.639C264.685 247.857 265.054 240.896 265.054 236.285C265.054 231.674 263.913 227.413 261.631 220.858C261.078 219.441 260.29 218.129 259.302 216.979Z" fill="#60ACAC" stroke="#263238" stroke-linecap="round" stroke-linejoin="round"/>
<path d="M260.388 235.703C261.445 234.601 262.433 233.434 263.347 232.207" stroke="#263238" stroke-linecap="round" stroke-linejoin="round"/>
<path d="M182.997 207.773C182.997 207.773 178.802 220.149 197.32 236.771C213.24 251.059 239.769 252.014 256.209 239.399" stroke="#263238" stroke-linecap="round" stroke-linejoin="round"/>
<path d="M183.343 217.322C183.343 217.322 182.643 239.24 204.654 254.093" stroke="#263238" stroke-linecap="round" stroke-linejoin="round"/>
<path d="M182.564 100.231C182.564 100.231 159.396 99.0362 153.501 112.177C147.607 125.318 164.11 128.106 163.732 130.057C163.354 132.008 157.051 136.429 161.371 139.614C165.691 142.8 171.192 143.979 171.602 145.572C172.011 147.164 175.135 153.918 175.135 153.918C175.135 153.918 179.07 156.307 181.809 154.715C184.547 153.122 183.768 145.954 186.129 142.394C188.49 138.834 188.49 134.43 196.36 128.48C204.229 122.531 222.668 122.109 225.808 123.319C228.948 124.53 233.678 124.912 235.63 128.098C237.581 131.284 237.203 147.563 238.777 147.563C240.351 147.563 239.564 136.835 243.098 128.886C246.631 120.938 253.328 113.388 250.558 102.262C247.788 91.1356 236.031 85.1784 232.497 89.949C228.964 94.7196 228.956 98.7097 222.267 93.5249C215.578 88.3402 206.126 81.1962 191.591 85.1306C177.055 89.0649 175.497 92.6807 182.564 100.231Z" fill="#263238" stroke="#263238" stroke-linecap="round" stroke-linejoin="round"/>
<path d="M194.062 89.272C193.042 88.898 191.987 88.6311 190.914 88.4756" stroke="#7D7D7D" stroke-linecap="round" stroke-linejoin="round"/>
<path d="M209.589 118.047C209.589 118.047 217.608 113.89 217.608 107.693C217.608 100.526 207.377 94.5683 199.508 91.279" stroke="#7D7D7D" stroke-linecap="round" stroke-linejoin="round"/>
<path d="M207.48 118.756C207.48 118.756 210.069 109.7 200.798 105.217C194.196 102.031 186.019 101.656 186.019 101.656" stroke="#7D7D7D" stroke-linecap="round" stroke-linejoin="round"/>
<path d="M162.638 112.671C161.623 112.671 160.734 112.671 159.986 112.671" stroke="#7D7D7D" stroke-linecap="round" stroke-linejoin="round"/>
<path d="M200.468 115.554C200.468 115.554 195.895 110.21 184.28 111.277C177.158 111.938 171.224 112.321 166.722 112.528" stroke="#7D7D7D" stroke-linecap="round" stroke-linejoin="round"/>
<path d="M236.228 107.741C237.265 106.985 238.239 106.143 239.139 105.224C244.066 100.247 239.139 93.1187 239.139 93.1187" stroke="#7D7D7D" stroke-linecap="round" stroke-linejoin="round"/>
<path d="M228.94 111.277C230.528 110.883 232.058 110.278 233.489 109.477" stroke="#7D7D7D" stroke-linecap="round" stroke-linejoin="round"/>
<path d="M180.707 126.513C180.707 126.513 171.539 134.756 166.958 135.783" stroke="#7D7D7D" stroke-linecap="round" stroke-linejoin="round"/>
<path d="M236.613 143.142C236.613 143.142 237.857 134.151 244.601 138.061C251.345 141.972 245.522 155.105 243.814 159.286C242.106 163.467 238.502 165.275 237.471 161.436C236.44 157.598 236.613 143.142 236.613 143.142Z" fill="white" stroke="#263238" stroke-linecap="round" stroke-linejoin="round"/>
<path d="M178.637 148.311C178.637 148.311 175.104 139.965 169.603 145.532C164.102 151.099 173.136 162.257 175.898 165.801C178.661 169.345 182.572 170.173 182.572 166.199C182.572 162.225 178.637 148.311 178.637 148.311Z" fill="white" stroke="#263238" stroke-linecap="round" stroke-linejoin="round"/>
<path d="M179.597 142.625C179.597 142.625 182.171 177.723 186.885 187.655C191.599 197.586 208.086 209.907 219.08 209.509C230.074 209.111 239.541 193.58 241.068 181.299C242.594 169.018 238.321 126.457 238.321 126.457C238.321 126.457 234.787 114.137 228.507 113.34C222.227 112.544 215.546 118.915 208.873 119.305C202.199 119.696 197.068 112.934 190.025 115.729C182.981 118.525 179.794 124.49 182.564 126.879C185.334 129.269 188.073 131.252 184.925 135.64C181.777 140.028 179.597 142.625 179.597 142.625Z" fill="white" stroke="#263238" stroke-linecap="round" stroke-linejoin="round"/>
<path d="M235.968 134.007C235.968 134.007 234 131.618 229.672 131.618C227.007 131.656 224.413 132.487 222.212 134.007" stroke="#263238" stroke-width="3" stroke-linecap="round" stroke-linejoin="round"/>
<path d="M205.733 137.982C205.733 137.982 197.485 134.406 191.197 141.558" stroke="#263238" stroke-width="3" stroke-linecap="round" stroke-linejoin="round"/>
<path d="M202.199 149.307C202.199 151.393 201.231 153.082 200.035 153.082C198.839 153.082 197.879 151.393 197.879 149.307C197.879 147.22 198.847 145.532 200.035 145.532C201.223 145.532 202.199 147.22 202.199 149.307Z" fill="#263238"/>
<path d="M227.72 146.129C227.72 148.216 226.753 149.904 225.556 149.904C224.36 149.904 223.4 148.216 223.4 146.129C223.4 144.042 224.368 142.354 225.556 142.354C226.745 142.354 227.72 144.042 227.72 146.129Z" fill="#263238"/>
<path d="M195.124 154.675L202.978 155.073" stroke="#263238" stroke-linecap="round" stroke-linejoin="round"/>
<path d="M226.147 153.48L232.434 150.302" stroke="#263238" stroke-linecap="round" stroke-linejoin="round"/>
<path d="M241.067 181.299C241.681 176.521 241.406 167.219 240.839 157.606C240.616 160.662 240.035 163.68 239.108 166.597C237.141 172.172 237.141 174.147 235.96 175.358C234.78 176.569 233.599 173.765 231.64 170.986C229.68 168.206 212.005 170.986 212.005 170.986C210.037 170.587 200.617 172.18 196.265 173.773C191.913 175.366 191.158 180.527 191.543 182.534C191.929 184.541 187.231 179.754 184.87 172.977C182.509 166.199 180.148 154.3 180.148 154.3C180.148 154.3 181.14 162.265 182.241 170.874C183.611 177.811 185.2 184.246 186.829 187.679C191.551 197.61 208.03 209.931 219.024 209.533C230.018 209.135 239.501 193.612 241.067 181.299Z" fill="#263238" stroke="#263238" stroke-linecap="round" stroke-linejoin="round"/>
<path d="M194.778 196.471C194.778 196.471 199.626 202.899 209.337 207.056" stroke="#7D7D7D" stroke-linecap="round" stroke-linejoin="round"/>
<path d="M207.299 181.299C207.299 181.299 210.045 186.46 215.955 187.257C221.865 188.053 223.416 178.91 223.416 178.91L208.101 179.707C208.101 179.707 206.512 178.91 207.299 181.299Z" fill="white" stroke="#263238" stroke-linecap="round" stroke-linejoin="round"/>
<path d="M205.733 179.707C205.733 179.707 207.306 189.264 215.546 190.857C223.786 192.449 225.777 178.114 225.777 178.114L205.733 179.707Z" fill="white" stroke="#263238" stroke-linecap="round" stroke-linejoin="round"/>
<path d="M211.037 180.065C211.037 180.065 211.824 184.748 215.853 185.528C219.882 186.309 220.866 179.284 220.866 179.284L211.037 180.065Z" fill="#263238" stroke="#263238" stroke-linecap="round" stroke-linejoin="round"/>
<path d="M229.68 176.927C229.68 176.927 219.867 181.299 213.941 181.299C209.817 181.175 205.727 180.505 201.774 179.308C201.774 179.308 212.792 176.123 217.868 176.123C222.944 176.123 229.68 176.927 229.68 176.927Z" fill="white" stroke="#263238" stroke-linecap="round" stroke-linejoin="round"/>
<path d="M221.047 136.389C221.047 136.389 216.325 143.15 216.727 144.353C217.128 145.556 223.022 166.613 220.26 169.791C217.498 172.969 213.177 172.571 210.029 170.587C206.881 168.604 203.734 165.427 204.93 163.834C205.735 162.84 206.841 162.143 208.078 161.851" fill="white"/>
<path d="M221.047 136.389C221.047 136.389 216.325 143.15 216.727 144.353C217.128 145.556 223.022 166.613 220.26 169.791C217.498 172.969 213.177 172.571 210.029 170.587C206.881 168.604 203.734 165.427 204.93 163.834C205.735 162.84 206.841 162.143 208.078 161.851" stroke="#263238" stroke-linecap="round" stroke-linejoin="round"/>
<path d="M103.537 210.855L110.147 193.867C110.147 193.867 110.934 192.274 107.668 187.902C104.402 183.529 105.709 178.639 107.881 169.48C109.722 161.699 112.602 133.283 113.444 124.936C113.51 124.251 113.78 123.602 114.218 123.076C114.657 122.549 115.243 122.17 115.9 121.989C116.402 121.85 116.929 121.829 117.44 121.929C117.951 122.029 118.432 122.247 118.846 122.566C119.261 122.885 119.596 123.297 119.828 123.768C120.059 124.24 120.18 124.76 120.181 125.287V150.079L124.431 150.326L129.152 119.114C129.276 118.344 129.655 117.64 130.228 117.117C130.8 116.595 131.531 116.285 132.3 116.239C132.778 116.213 133.255 116.288 133.702 116.461C134.149 116.634 134.554 116.9 134.893 117.241C135.231 117.583 135.495 117.993 135.667 118.445C135.838 118.896 135.914 119.38 135.889 119.863L134.425 150.924L136.786 151.226L143.751 120.221C143.934 119.373 144.422 118.623 145.119 118.117C145.817 117.611 146.675 117.385 147.528 117.482C148.435 117.584 149.266 118.043 149.841 118.76C150.417 119.476 150.691 120.393 150.605 121.312L147.678 151.919L159.309 129.038C159.599 128.468 160.076 128.018 160.657 127.764C161.238 127.51 161.888 127.468 162.496 127.644C162.864 127.749 163.206 127.931 163.5 128.179C163.793 128.426 164.032 128.733 164.202 129.08C164.371 129.427 164.466 129.806 164.481 130.192C164.497 130.579 164.432 130.964 164.291 131.323L152.384 161.795C152.384 161.795 157.106 157.765 161.788 154.101C166.471 150.438 170.445 150.812 169.02 155.2C167.596 159.589 163.96 161.795 159.978 167.282C155.996 172.77 153.824 180.097 150.534 185.958C147.245 191.82 135.952 193.867 135.952 193.867C135.952 193.867 123.4 216.35 122.314 217.083L103.537 210.855Z" fill="white" stroke="#263238" stroke-linecap="round" stroke-linejoin="round"/>
<path d="M116.608 149.92L149.952 152.278" stroke="#263238" stroke-linecap="round" stroke-linejoin="round"/>
<path d="M126.949 189.678C126.949 189.678 123.439 182.661 131.757 172.045C140.076 161.428 144.782 162.894 144.782 162.894" fill="white"/>
<path d="M126.949 189.678C126.949 189.678 123.439 182.661 131.757 172.045C140.076 161.428 144.782 162.894 144.782 162.894" stroke="#263238" stroke-linecap="round" stroke-linejoin="round"/>
<path d="M97.8703 262.814L118.733 224.402L99.9243 207.558L97.8703 209.23V262.814Z" fill="white"/>
<path d="M99.7354 227.014C99.8354 227.016 99.9327 226.982 100.011 226.919L105.89 222.14C105.97 222.063 106.02 221.958 106.027 221.846C106.035 221.734 106 221.623 105.931 221.536C105.861 221.448 105.762 221.391 105.652 221.374C105.542 221.358 105.43 221.384 105.339 221.447L99.4679 226.226C99.3779 226.299 99.3201 226.406 99.3069 226.522C99.2936 226.638 99.326 226.755 99.397 226.847C99.437 226.899 99.4882 226.942 99.5469 226.971C99.6056 227 99.6701 227.015 99.7354 227.014Z" fill="#B2B2B2"/>
<path d="M110.352 233.927C110.306 233.821 110.222 233.736 110.116 233.692C110.01 233.647 109.892 233.646 109.785 233.689C109.678 233.734 109.593 233.821 109.549 233.93C109.504 234.039 109.505 234.161 109.549 234.27L111.202 238.252L111.737 237.264L110.352 233.927Z" fill="#B2B2B2"/>
<path d="M97.8703 262.814L118.733 224.402L99.9243 207.558L97.8703 209.23V262.814Z" stroke="#263238" stroke-linecap="round" stroke-linejoin="round"/>
<path d="M103.174 199.139L97.8703 206.952V212.934L119.095 229.531L130.671 213.419L103.174 199.139Z" fill="white" stroke="#263238" stroke-linecap="round" stroke-linejoin="round"/>
<path d="M144.116 321.223C150.284 320.604 154.787 315.041 154.175 308.8C153.563 302.558 148.066 298.001 141.899 298.62C135.731 299.24 131.228 304.802 131.84 311.044C132.453 317.285 137.949 321.843 144.116 321.223Z" fill="white" stroke="#263238" stroke-width="0.724166" stroke-linecap="round" stroke-linejoin="round"/>
<path d="M143.019 312.726C142.418 312.726 141.841 312.484 141.416 312.054C140.991 311.624 140.752 311.041 140.752 310.432V303.169C140.752 302.561 140.991 301.977 141.416 301.547C141.841 301.117 142.418 300.875 143.019 300.875C143.619 300.877 144.193 301.12 144.616 301.55C145.04 301.98 145.277 302.562 145.277 303.169V310.432C145.277 311.039 145.04 311.622 144.616 312.052C144.193 312.481 143.619 312.724 143.019 312.726Z" fill="#263238"/>
<path d="M143.019 314.375C141.957 314.373 140.939 313.945 140.189 313.185C139.438 312.425 139.015 311.395 139.013 310.321V306.912C139.013 306.8 139.057 306.693 139.135 306.614C139.214 306.535 139.32 306.49 139.43 306.49C139.485 306.49 139.539 306.501 139.589 306.522C139.639 306.544 139.684 306.575 139.722 306.614C139.761 306.653 139.791 306.7 139.811 306.751C139.831 306.802 139.841 306.857 139.839 306.912V310.321C139.839 311.173 140.174 311.991 140.77 312.593C141.365 313.196 142.173 313.534 143.015 313.534C143.857 313.534 144.665 313.196 145.26 312.593C145.856 311.991 146.19 311.173 146.19 310.321V306.912C146.19 306.8 146.234 306.693 146.312 306.614C146.391 306.535 146.497 306.49 146.607 306.49C146.718 306.49 146.824 306.535 146.902 306.614C146.981 306.693 147.025 306.8 147.025 306.912V310.321C147.022 311.395 146.6 312.425 145.849 313.185C145.098 313.945 144.081 314.373 143.019 314.375Z" fill="#263238"/>
<path d="M143.019 318.731C142.908 318.731 142.802 318.687 142.724 318.608C142.646 318.528 142.602 318.421 142.602 318.309V313.953C142.602 313.841 142.646 313.733 142.724 313.654C142.802 313.575 142.908 313.531 143.019 313.531C143.129 313.531 143.236 313.575 143.314 313.654C143.392 313.733 143.436 313.841 143.436 313.953V318.309C143.436 318.421 143.392 318.528 143.314 318.608C143.236 318.687 143.129 318.731 143.019 318.731Z" fill="#263238"/>
<path d="M145.773 318.954H140.264C140.158 318.948 140.058 318.901 139.985 318.822C139.911 318.744 139.871 318.64 139.871 318.532C139.871 318.477 139.882 318.423 139.903 318.372C139.924 318.321 139.955 318.275 139.994 318.236C140.032 318.198 140.078 318.167 140.129 318.147C140.18 318.127 140.234 318.117 140.288 318.118H145.797C145.905 318.118 146.009 318.162 146.086 318.239C146.163 318.317 146.206 318.422 146.206 318.532C146.207 318.589 146.197 318.646 146.175 318.699C146.154 318.752 146.122 318.799 146.081 318.839C146.04 318.879 145.992 318.909 145.939 318.929C145.886 318.949 145.83 318.958 145.773 318.954Z" fill="#263238"/>
<path d="M219.922 320.942C225.952 319.491 229.679 313.369 228.245 307.266C226.812 301.164 220.762 297.393 214.732 298.843C208.703 300.294 204.976 306.416 206.409 312.519C207.843 318.621 213.893 322.392 219.922 320.942Z" fill="white" stroke="#263238" stroke-width="0.724166" stroke-linecap="round" stroke-linejoin="round"/>
<path d="M224.226 306.586L220.929 308.505V306.912C220.929 306.553 220.788 306.209 220.537 305.955C220.286 305.701 219.946 305.558 219.591 305.558H212.186C211.831 305.558 211.491 305.701 211.24 305.955C210.989 306.209 210.848 306.553 210.848 306.912V312.957C210.848 313.316 210.989 313.661 211.24 313.914C211.491 314.168 211.831 314.311 212.186 314.311H219.591C219.946 314.311 220.286 314.168 220.537 313.914C220.788 313.661 220.929 313.316 220.929 312.957V311.364L224.203 313.284L224.226 306.586Z" fill="#263238"/>
<path d="M182.769 320.947C188.799 319.497 192.525 313.374 191.092 307.272C189.659 301.169 183.609 297.398 177.579 298.849C171.549 300.299 167.823 306.422 169.256 312.524C170.689 318.626 176.739 322.398 182.769 320.947Z" fill="#263238" stroke="#263238" stroke-width="0.724166" stroke-linecap="round" stroke-linejoin="round"/>
<path d="M185.838 307.518H174.498C174.183 307.517 173.872 307.586 173.586 307.721C173.301 307.856 173.049 308.053 172.847 308.298C172.646 308.543 172.5 308.83 172.421 309.138C172.342 309.447 172.331 309.769 172.389 310.082L172.719 311.874C172.741 311.997 172.805 312.108 172.9 312.188C172.995 312.268 173.115 312.312 173.238 312.312H176.662C176.802 312.312 176.936 312.256 177.035 312.156C177.134 312.056 177.189 311.92 177.189 311.778V309.827H183.154V311.778C183.154 311.92 183.21 312.056 183.309 312.156C183.408 312.256 183.542 312.312 183.682 312.312H187.089C187.213 312.312 187.332 312.268 187.427 312.188C187.522 312.108 187.586 311.997 187.609 311.874L187.939 310.082C187.997 309.769 187.986 309.448 187.907 309.14C187.828 308.832 187.683 308.546 187.483 308.301C187.282 308.056 187.031 307.859 186.747 307.724C186.462 307.588 186.152 307.518 185.838 307.518Z" fill="#60ACAC"/>
<path d="M272.79 117.705C272.942 117.706 273.092 117.676 273.232 117.618C273.373 117.56 273.5 117.475 273.608 117.367C273.715 117.259 273.801 117.13 273.859 116.989C273.917 116.847 273.947 116.695 273.947 116.542V85.2182C273.947 85.0648 273.917 84.9129 273.859 84.7713C273.801 84.6298 273.715 84.5012 273.608 84.3931C273.5 84.285 273.373 84.1996 273.232 84.1416C273.092 84.0836 272.942 84.0543 272.79 84.0554H269.784V24.2276C269.785 22.2523 269.402 20.2962 268.655 18.4709C267.909 16.6457 266.815 14.9871 265.435 13.59C264.055 12.1929 262.417 11.0846 260.614 10.3284C258.811 9.57227 256.878 9.18307 254.926 9.18307H109.824C107.873 9.18307 105.94 9.57227 104.137 10.3284C102.334 11.0846 100.695 12.1929 99.3154 13.59C97.9356 14.9871 96.8414 16.6457 96.0951 18.4709C95.3489 20.2962 94.9654 22.2523 94.9664 24.2276V332.963C94.9664 336.951 96.5318 340.776 99.3182 343.596C102.105 346.416 105.884 348 109.824 348H254.926C258.867 348 262.646 346.416 265.432 343.596C268.219 340.776 269.784 336.951 269.784 332.963V144.632H272.79C273.096 144.632 273.389 144.51 273.606 144.292C273.822 144.074 273.945 143.778 273.947 143.469V129.531C273.947 129.378 273.917 129.226 273.859 129.085C273.801 128.943 273.715 128.815 273.608 128.706C273.5 128.598 273.373 128.513 273.232 128.455C273.092 128.397 272.942 128.368 272.79 128.369H269.784V117.705H272.79ZM264.763 321.248C264.745 322.676 264.449 324.086 263.892 325.397C263.335 326.709 262.528 327.897 261.517 328.893C260.506 329.89 259.312 330.675 258.001 331.203C256.691 331.732 255.29 331.995 253.879 331.976H110.879C109.468 331.996 108.066 331.734 106.755 331.206C105.443 330.677 104.248 329.893 103.236 328.896C102.225 327.9 101.417 326.712 100.86 325.399C100.302 324.087 100.006 322.676 99.9873 321.248V27.4771C100.006 26.0483 100.302 24.6373 100.86 23.3245C101.417 22.0117 102.224 20.8229 103.236 19.826C104.247 18.829 105.443 18.0435 106.754 17.5142C108.066 16.9849 109.467 16.7222 110.879 16.7412H167.242L169.603 21.1375C170.868 23.4475 172.721 25.3726 174.97 26.7131C177.219 28.0535 179.781 28.7605 182.391 28.7605C185.001 28.7605 187.563 28.0535 189.812 26.7131C192.061 25.3726 193.914 23.4475 195.179 21.1375L197.54 16.7412H253.911C256.756 16.7114 259.496 17.8251 261.531 19.8378C263.565 21.8506 264.728 24.5979 264.763 27.4771V321.248Z" fill="#263238" stroke="#263238" stroke-linecap="round" stroke-linejoin="round"/>
<path d="M186.255 18.4217C186.255 17.6454 186.028 16.8866 185.602 16.2411C185.176 15.5956 184.57 15.0923 183.862 14.7949C183.153 14.4975 182.374 14.4193 181.621 14.5701C180.869 14.721 180.178 15.0942 179.635 15.6425C179.092 16.1908 178.722 16.8897 178.571 17.6508C178.42 18.4119 178.496 19.2011 178.789 19.9187C179.081 20.6363 179.577 21.2501 180.214 21.6825C180.851 22.1149 181.6 22.3465 182.367 22.3481C182.878 22.3491 183.383 22.2483 183.855 22.0515C184.326 21.8546 184.755 21.5656 185.116 21.2009C185.477 20.8362 185.763 20.403 185.959 19.9261C186.154 19.4492 186.255 18.938 186.255 18.4217Z" fill="white" stroke="#263238" stroke-linecap="round" stroke-linejoin="round"/>
<path d="M159.939 36.2378H112.052V119.664H159.939V36.2378Z" fill="white" stroke="white" stroke-width="3" stroke-linecap="round" stroke-linejoin="round"/>
<path d="M159.939 119.664V94.178C159.556 93.66 159.103 93.1989 158.593 92.8081C154.587 89.7419 142.137 91.3188 139.784 91.4542C137.431 91.5896 133.961 91.5816 133.961 91.5816C133.961 91.5816 127.035 91.8285 121.212 92.0754C119.461 92.1916 117.759 92.7068 116.233 93.5826C114.706 94.4583 113.395 95.672 112.398 97.1327V119.664H159.939Z" fill="#60ACAC" stroke="#263238" stroke-linecap="round" stroke-linejoin="round"/>
<path d="M128.853 91.6135C127.226 91.9038 125.734 92.7178 124.6 93.9345C123.465 95.1513 122.749 96.7058 122.558 98.3672C121.708 104.388 123.77 108.076 128.625 111.389C131.486 113.343 134.194 115.518 136.723 117.896C136.723 117.896 147.04 109.055 148.614 103.401C150.188 97.746 147.89 92.84 145.34 91.9798C142.791 91.1197 128.853 91.6135 128.853 91.6135Z" fill="#A3A3A3" stroke="#263238" stroke-miterlimit="10"/>
<path d="M159.939 119.664V113.698L157.987 114.216L157.318 119.664H159.939Z" fill="#A3A3A3" stroke="#263238" stroke-miterlimit="10"/>
<path d="M117.261 119.664L116.844 117.896L112.398 117.45V119.664H117.261Z" fill="#A3A3A3" stroke="#263238" stroke-miterlimit="10"/>
<path d="M114.42 106.722L116.876 117.394" stroke="#263238" stroke-miterlimit="10"/>
<path d="M157.971 81.1962C158.396 80.8617 159.16 80.3998 159.962 79.7786V56.2998C159.065 55.5034 157.649 55.0415 157.326 54.022C156.838 52.5088 158.459 50.4859 157.326 48.6302C156.193 46.7745 151.817 48.463 149.716 47.9532C147.615 47.4435 147.127 46.44 146.324 44.5843C145.521 42.7287 142.413 43.5729 141.445 43.764C140.477 43.9552 143.869 40.5783 142.09 38.5395C140.312 36.5006 134.48 38.3722 133.835 40.3951C133.19 42.4181 130.758 40.3951 130.113 38.7067C129.467 37.0183 124.777 35.521 124.777 38.5395C124.763 39.1062 124.863 39.67 125.07 40.1968C125.277 40.7237 125.587 41.2029 125.981 41.6057C124.446 40.6261 121.983 39.4076 120.401 40.3951C117.977 41.9083 121.7 43.9313 121.7 43.9313H117.167C115.497 44.0205 113.868 44.4858 112.398 45.2932V51.5292V90.0764C114.129 90.0764 115.388 89.5428 115.388 90.4268C115.388 91.7728 115.876 94.2975 118.465 93.294C121.054 92.2905 123.187 90.4268 123.187 91.7728C123.187 93.1187 124.478 95.6514 126.099 94.9585C127.72 94.2656 128.853 90.9126 129.821 92.4338C130.789 93.955 133.221 96.3045 134.842 94.624C136.463 92.9435 137.266 91.5896 139.21 94.1143C141.154 96.639 143.578 97.1487 144.223 94.624C144.868 92.0993 146.332 93.278 148.756 94.624C151.18 95.97 154.745 95.293 154.745 92.7683C154.745 90.2436 153.446 88.0535 155.067 87.711C156.689 87.3685 159.923 86.365 159.112 84.6766C158.302 82.9882 156.657 82.1678 157.971 81.1962Z" fill="#263238"/>
<path d="M157.468 117.88C157.961 113.871 158.459 109.865 158.963 105.862" stroke="#263238" stroke-miterlimit="10"/>
<path d="M129.349 100.581C129.349 100.581 129.711 94.0665 129.711 91.8206V86.6597L141.358 85.919C141.358 85.919 141.964 95.1337 144.396 98.9406" fill="#A3A3A3"/>
<path d="M129.349 100.581C129.349 100.581 129.711 94.0665 129.711 91.8206V86.6597L141.358 85.919C141.358 85.919 141.964 95.1337 144.396 98.9406" stroke="#263238" stroke-miterlimit="10"/>
<path d="M121.566 72.8178C121.566 72.8178 119.087 75.5654 119.087 76.5052C119.087 77.445 120.795 79.9538 122.109 80.344C123.423 80.7343 123.888 79.8024 123.888 79.2529C123.888 78.7034 121.566 72.8178 121.566 72.8178Z" fill="#A3A3A3" stroke="#263238" stroke-linecap="round" stroke-linejoin="round"/>
<path d="M146.34 71.7187C146.34 71.7187 149.684 73.2558 150.054 74.108C150.424 74.9602 149.826 77.9547 148.764 78.8388C148.63 79.0001 148.457 79.1244 148.263 79.1998C148.069 79.2752 147.858 79.2993 147.652 79.2698C147.446 79.2403 147.25 79.1582 147.084 79.0313C146.918 78.9043 146.786 78.7367 146.702 78.5441C146.489 78.0503 146.34 71.7187 146.34 71.7187Z" fill="#A3A3A3" stroke="#263238" stroke-miterlimit="10"/>
<path d="M125.336 57.3591C125.336 57.3591 120.842 60.3298 120.323 64.5269C119.803 68.7241 123.47 82.1838 124.989 84.4377C126.508 86.6916 135.007 91.948 137.423 91.6055C139.839 91.2631 145.545 83.3864 146.584 81.6342C147.623 79.8821 146.757 66.7808 145.891 61.1819C145.026 55.583 138.982 54.3645 133.3 54.3645C127.618 54.3645 125.336 57.3591 125.336 57.3591Z" fill="#A3A3A3" stroke="#263238" stroke-linecap="round" stroke-linejoin="round"/>
<path d="M131.261 70.9302C131.261 71.7267 130.86 72.4116 130.356 72.4116C129.853 72.4116 129.451 71.7426 129.451 70.9302C129.451 70.1179 129.861 69.4409 130.356 69.4409C130.852 69.4409 131.261 70.1099 131.261 70.9302Z" fill="#263238"/>
<path d="M140.957 69.7913C140.957 70.5878 140.556 71.2727 140.052 71.2727C139.548 71.2727 139.147 70.6116 139.147 69.7913C139.147 68.971 139.556 68.31 140.052 68.31C140.548 68.31 140.957 68.971 140.957 69.7913Z" fill="#263238"/>
<path d="M136.723 68.3339C136.723 68.3339 136.353 72.8257 137.345 73.1124C138.336 73.3992 139.194 75.6053 137.345 76.3539C135.495 77.1025 134.63 76.2344 134.378 75.3584" stroke="#263238" stroke-linecap="round" stroke-linejoin="round"/>
<path d="M127.815 73.2L131.143 73.0806" stroke="#263238" stroke-width="0.5" stroke-linecap="round" stroke-linejoin="round"/>
<path d="M139.777 72.0771L142.617 70.7072" stroke="#263238" stroke-width="0.5" stroke-linecap="round" stroke-linejoin="round"/>
<path d="M123.777 55.9653C123.777 55.9653 126.713 56.8334 125.682 58.2352C124.651 59.6369 122.573 61.9067 124.108 62.2173C125.643 62.5279 126.012 62.9182 124.974 63.2606C123.935 63.6031 122.038 65.188 124.8 65.5384C127.563 65.8888 128.735 65.188 129.64 62.7429C130.545 60.2979 130.498 60.9908 132.576 62.2173C134.653 63.4438 136.204 59.597 135.338 58.2352C134.472 56.8733 133.095 57.8847 133.268 55.7901C133.339 54.5875 133.758 53.4325 134.472 52.469L137.061 54.0619C137.061 54.0619 134.992 55.814 136.55 57.383C138.108 58.9519 140.005 59.3103 138.793 59.6608C137.581 60.0112 135.857 62.1058 138.1 62.4562C140.343 62.8067 141.901 61.2297 141.901 59.828C141.901 58.4263 140.863 57.0325 141.901 55.9892L144.144 53.7114C144.144 53.7114 143.806 50.9319 137.597 49.8408C131.387 48.7497 126.374 51.4336 125.336 52.469C124.297 53.5044 123.777 55.9653 123.777 55.9653Z" fill="#263238"/>
<path d="M129.64 79.6989C129.64 79.6989 132.222 83.259 133.748 84.1191C135.275 84.9792 138.321 84.6527 139.706 83.5218C141.091 82.3908 142.153 78.3928 142.153 78.3928C140.064 79.3985 137.804 79.9905 135.495 80.137C133.533 80.2439 131.566 80.0967 129.64 79.6989Z" fill="#A6A6A6" stroke="#263238" stroke-width="0.5" stroke-miterlimit="10"/>
<path d="M132.41 80.7741C132.854 81.3225 133.412 81.7641 134.045 82.0672C134.678 82.3702 135.37 82.527 136.07 82.5262C137.078 82.4602 138.045 82.0981 138.853 81.4842C139.661 80.8702 140.275 80.0312 140.619 79.0697L131.175 79.9777L132.41 80.7741Z" fill="white" stroke="#263238" stroke-linecap="round" stroke-linejoin="round"/>
<path d="M142.413 77.8671C141.675 78.3575 140.809 78.6127 139.926 78.5998C138.757 78.6745 137.599 78.8747 136.471 79.1972C135.519 79 134.533 79.0383 133.599 79.3087C132.148 79.5462 130.671 79.565 129.215 79.3644C129.215 79.3644 131.269 80.7821 136.243 80.4077C141.933 79.9856 142.413 77.8671 142.413 77.8671Z" fill="#808080" stroke="#263238" stroke-width="0.5" stroke-miterlimit="10"/>
<path d="M125.879 68.0233C126.532 67.1635 127.387 66.4819 128.365 66.0402C130.482 64.9968 131.789 65.5145 131.789 65.5145" stroke="#263238" stroke-width="2" stroke-miterlimit="10" stroke-linecap="round"/>
<path d="M137.313 64.0809C137.947 63.7334 138.644 63.5177 139.361 63.4466C140.079 63.3754 140.803 63.4503 141.492 63.6668C142.189 63.8946 142.808 64.317 143.279 64.8853" stroke="#263238" stroke-width="2" stroke-miterlimit="10" stroke-linecap="round"/>
<path d="M12.3817 348H364.158" stroke="#263238" stroke-linecap="round" stroke-linejoin="round"/>
</svg>
