<svg width="176" height="28" viewBox="0 0 176 28" fill="none" xmlns="http://www.w3.org/2000/svg">
<path d="M172.76 26.652V16.6808C172.76 15.3849 172.352 14.317 171.536 13.477C170.72 12.6371 169.665 12.2171 168.369 12.2171C167.505 12.2171 166.737 12.4091 166.065 12.7931C165.393 13.177 164.865 13.705 164.481 14.3769C164.097 15.0489 163.905 15.8168 163.905 16.6808L162.573 15.9248C162.573 14.6289 162.861 13.477 163.437 12.4691C164.013 11.4612 164.817 10.6692 165.849 10.0933C166.881 9.49334 168.045 9.19336 169.341 9.19336C170.636 9.19336 171.776 9.51733 172.76 10.1653C173.768 10.8132 174.56 11.6652 175.136 12.7211C175.712 13.753 176 14.8569 176 16.0328V26.652H172.76ZM160.665 26.652V9.55333H163.905V26.652H160.665Z" fill="#053E3E"/>
<path d="M148.088 27.0119C146.408 27.0119 144.896 26.616 143.552 25.824C142.208 25.0321 141.14 23.9642 140.348 22.6203C139.556 21.2524 139.16 19.7285 139.16 18.0487C139.16 16.3928 139.556 14.9049 140.348 13.585C141.14 12.2411 142.208 11.1732 143.552 10.3813C144.896 9.58933 146.408 9.19336 148.088 9.19336C149.744 9.19336 151.243 9.58933 152.587 10.3813C153.955 11.1492 155.035 12.2051 155.827 13.549C156.619 14.8929 157.015 16.3928 157.015 18.0487C157.015 19.7285 156.619 21.2524 155.827 22.6203C155.035 23.9642 153.955 25.0321 152.587 25.824C151.243 26.616 149.744 27.0119 148.088 27.0119ZM148.088 23.8802C149.168 23.8802 150.127 23.6282 150.967 23.1243C151.807 22.6203 152.467 21.9363 152.947 21.0724C153.427 20.1845 153.667 19.1766 153.667 18.0487C153.667 16.9447 153.415 15.9608 152.911 15.0969C152.431 14.233 151.771 13.561 150.931 13.0811C150.115 12.5771 149.168 12.3251 148.088 12.3251C147.008 12.3251 146.048 12.5771 145.208 13.0811C144.368 13.561 143.708 14.233 143.228 15.0969C142.748 15.9608 142.508 16.9447 142.508 18.0487C142.508 19.1766 142.748 20.1845 143.228 21.0724C143.708 21.9363 144.368 22.6203 145.208 23.1243C146.048 23.6282 147.008 23.8802 148.088 23.8802Z" fill="#053E3E"/>
<path d="M132.262 26.6522V9.55354H135.502V26.6522H132.262ZM133.882 6.13381C133.282 6.13381 132.79 5.94183 132.406 5.55786C132.022 5.14989 131.83 4.64593 131.83 4.04598C131.83 3.47003 132.022 2.99006 132.406 2.60609C132.79 2.19812 133.282 1.99414 133.882 1.99414C134.482 1.99414 134.974 2.19812 135.358 2.60609C135.742 2.99006 135.934 3.47003 135.934 4.04598C135.934 4.64593 135.742 5.14989 135.358 5.55786C134.974 5.94183 134.482 6.13381 133.882 6.13381Z" fill="#053E3E"/>
<path d="M121.601 26.6517V2.38965H124.841V26.6517H121.601ZM117.389 12.5048V9.55308H129.052V12.5048H117.389Z" fill="#053E3E"/>
<path d="M109.384 27.0119C107.704 27.0119 106.18 26.616 104.812 25.824C103.468 25.0321 102.4 23.9642 101.608 22.6203C100.84 21.2524 100.456 19.7405 100.456 18.0847C100.456 16.4048 100.84 14.8929 101.608 13.549C102.4 12.2051 103.468 11.1492 104.812 10.3813C106.18 9.58933 107.704 9.19336 109.384 9.19336C110.704 9.19336 111.927 9.44534 113.055 9.9493C114.183 10.4293 115.155 11.1372 115.971 12.0731L113.811 14.233C113.283 13.609 112.635 13.141 111.867 12.8291C111.124 12.4931 110.296 12.3251 109.384 12.3251C108.304 12.3251 107.344 12.5771 106.504 13.0811C105.664 13.561 105.004 14.233 104.524 15.0969C104.044 15.9608 103.804 16.9567 103.804 18.0847C103.804 19.2126 104.044 20.2085 104.524 21.0724C105.004 21.9363 105.664 22.6203 106.504 23.1243C107.344 23.6282 108.304 23.8802 109.384 23.8802C110.296 23.8802 111.124 23.7242 111.867 23.4122C112.635 23.0763 113.295 22.5963 113.847 21.9723L115.971 24.1322C115.179 25.0441 114.207 25.752 113.055 26.256C111.927 26.76 110.704 27.0119 109.384 27.0119Z" fill="#053E3E"/>
<path d="M90.1924 27.0119C88.4886 27.0119 86.9527 26.628 85.5848 25.86C84.2169 25.0681 83.137 24.0002 82.3451 22.6563C81.5531 21.3124 81.1572 19.7885 81.1572 18.0847C81.1572 16.4048 81.5411 14.8929 82.3091 13.549C83.101 12.2051 84.1569 11.1492 85.4768 10.3813C86.8207 9.58933 88.3206 9.19336 89.9765 9.19336C91.5603 9.19336 92.9522 9.55333 94.1521 10.2733C95.376 10.9932 96.3239 11.9891 96.9959 13.261C97.6918 14.5329 98.0398 15.9728 98.0398 17.5807C98.0398 17.8207 98.0278 18.0847 98.0038 18.3726C97.9798 18.6366 97.9318 18.9486 97.8598 19.3086H83.425V16.6088H96.132L94.9441 17.6527C94.9441 16.5008 94.7401 15.5289 94.3321 14.7369C93.9241 13.921 93.3482 13.297 92.6042 12.8651C91.8603 12.4091 90.9604 12.1811 89.9045 12.1811C88.8005 12.1811 87.8286 12.4211 86.9887 12.9011C86.1488 13.381 85.5008 14.053 85.0448 14.9169C84.5889 15.7808 84.3609 16.8008 84.3609 17.9767C84.3609 19.1766 84.6009 20.2325 85.0808 21.1444C85.5608 22.0323 86.2447 22.7283 87.1327 23.2322C88.0206 23.7122 89.0405 23.9522 90.1924 23.9522C91.1524 23.9522 92.0283 23.7842 92.8202 23.4482C93.6362 23.1123 94.3321 22.6083 94.9081 21.9363L96.9959 24.0602C96.18 25.0201 95.172 25.752 93.9721 26.256C92.7962 26.76 91.5363 27.0119 90.1924 27.0119Z" fill="#053E3E"/>
<path d="M68.3874 26.652V9.55333H71.6272V26.652H68.3874ZM71.6272 16.8967L70.4033 16.3568C70.4033 14.173 70.9072 12.4331 71.9151 11.1372C72.9231 9.84131 74.3749 9.19336 76.2708 9.19336C77.1347 9.19336 77.9147 9.34935 78.6106 9.66132C79.3065 9.9493 79.9545 10.4413 80.5544 11.1372L78.4306 13.333C78.0706 12.9491 77.6747 12.6731 77.2427 12.5051C76.8107 12.3371 76.3068 12.2531 75.7308 12.2531C74.5309 12.2531 73.547 12.6371 72.7791 13.405C72.0111 14.173 71.6272 15.3369 71.6272 16.8967Z" fill="#053E3E"/>
<path d="M60.3733 26.6522V9.55354H63.613V26.6522H60.3733ZM61.9931 6.13381C61.3932 6.13381 60.9012 5.94183 60.5173 5.55786C60.1333 5.14989 59.9413 4.64593 59.9413 4.04598C59.9413 3.47003 60.1333 2.99006 60.5173 2.60609C60.9012 2.19812 61.3932 1.99414 61.9931 1.99414C62.5931 1.99414 63.0851 2.19812 63.469 2.60609C63.853 2.99006 64.045 3.47003 64.045 4.04598C64.045 4.64593 63.853 5.14989 63.469 5.55786C63.0851 5.94183 62.5931 6.13381 61.9931 6.13381Z" fill="#053E3E"/>
<path d="M46.6212 27.0121C45.0374 27.0121 43.6215 26.6282 42.3736 25.8602C41.1257 25.0683 40.1298 24.0004 39.3858 22.6565C38.6659 21.3126 38.3059 19.8007 38.3059 18.1208C38.3059 16.441 38.6659 14.9291 39.3858 13.5852C40.1298 12.2413 41.1257 11.1734 42.3736 10.3814C43.6215 9.58951 45.0374 9.19354 46.6212 9.19354C47.8931 9.19354 49.045 9.46952 50.077 10.0215C51.1089 10.5494 51.9368 11.2934 52.5608 12.2533C53.2087 13.1892 53.5687 14.2811 53.6407 15.529V20.6766C53.5687 21.9005 53.2207 22.9924 52.5968 23.9524C51.9728 24.9123 51.1449 25.6682 50.113 26.2202C49.081 26.7481 47.9171 27.0121 46.6212 27.0121ZM47.1612 23.9524C48.2411 23.9524 49.177 23.7004 49.969 23.1964C50.7849 22.6925 51.4209 22.0085 51.8768 21.1446C52.3328 20.2567 52.5608 19.2487 52.5608 18.1208C52.5608 16.9449 52.3208 15.925 51.8408 15.0611C51.3849 14.1971 50.7489 13.5132 49.933 13.0092C49.141 12.5053 48.2051 12.2533 47.1252 12.2533C46.0453 12.2533 45.0974 12.5053 44.2814 13.0092C43.4655 13.5132 42.8175 14.2091 42.3376 15.0971C41.8816 15.961 41.6536 16.9569 41.6536 18.0848C41.6536 19.2367 41.8816 20.2567 42.3376 21.1446C42.8175 22.0085 43.4655 22.6925 44.2814 23.1964C45.1214 23.7004 46.0813 23.9524 47.1612 23.9524ZM55.6205 26.6522H52.3448V22.0445L52.9567 17.8689L52.3448 13.7292V0.950195H55.6205V26.6522Z" fill="#053E3E"/>
<path d="M0.346272 12.6532C0.346272 9.70794 2.7339 7.32031 5.67918 7.32031H14.3452C17.2904 7.32031 19.6781 9.70794 19.6781 12.6532V21.3192C19.6781 24.2645 17.2904 26.6521 14.3452 26.6521H5.67918C2.7339 26.6521 0.346272 24.2645 0.346272 21.3192V12.6532Z" fill="#60ACAC"/>
<path fill-rule="evenodd" clip-rule="evenodd" d="M3.37048 26.128L22.8088 6.68964V18.3314C22.8088 19.3077 23.6002 20.0991 24.5765 20.0991C25.5528 20.0991 26.3442 19.3077 26.3442 18.3314V2.42201C26.3442 1.44573 25.5528 0.654297 24.5765 0.654297H8.66709C7.69081 0.654297 6.89938 1.44573 6.89938 2.42201C6.89938 3.39829 7.69081 4.18972 8.66709 4.18972H20.3089L0.870561 23.628C1.39515 24.7187 2.27985 25.6034 3.37048 26.128Z" fill="#053E3E"/>
</svg>
