<svg width="27" height="27" viewBox="0 0 27 27" fill="none" xmlns="http://www.w3.org/2000/svg">
<path d="M0.346272 12.6532C0.346272 9.70794 2.7339 7.32031 5.67918 7.32031H14.3452C17.2904 7.32031 19.6781 9.70794 19.6781 12.6532V21.3192C19.6781 24.2645 17.2904 26.6521 14.3452 26.6521H5.67918C2.7339 26.6521 0.346272 24.2645 0.346272 21.3192V12.6532Z" fill="#60ACAC"/>
<path fill-rule="evenodd" clip-rule="evenodd" d="M3.37048 26.128L22.8088 6.68964V18.3314C22.8088 19.3077 23.6002 20.0991 24.5765 20.0991C25.5528 20.0991 26.3442 19.3077 26.3442 18.3314V2.42201C26.3442 1.44573 25.5528 0.654297 24.5765 0.654297H8.66709C7.69081 0.654297 6.89938 1.44573 6.89938 2.42201C6.89938 3.39829 7.69081 4.18972 8.66709 4.18972H20.3089L0.870561 23.628C1.39515 24.7187 2.27985 25.6034 3.37048 26.128Z" fill="#053E3E"/>
</svg>
