<svg width="19" height="20" viewBox="0 0 19 20" fill="none" xmlns="http://www.w3.org/2000/svg">
<g clip-path="url(#clip0_844_1084)">
<path d="M14.0573 11.4174C14.0203 11.3996 12.6352 10.7175 12.389 10.629C12.2885 10.5929 12.1809 10.5576 12.0664 10.5576C11.8794 10.5576 11.7222 10.6509 11.5998 10.8339C11.4615 11.0396 11.0426 11.5292 10.9132 11.6755C10.8963 11.6948 10.8732 11.7179 10.8594 11.7179C10.847 11.7179 10.6326 11.6296 10.5677 11.6014C9.08185 10.956 7.95401 9.40382 7.79935 9.14208C7.77727 9.10445 7.77634 9.08736 7.77616 9.08736C7.78159 9.06744 7.83156 9.01735 7.85734 8.9915C7.93279 8.91686 8.01452 8.81846 8.09361 8.72328C8.13105 8.67819 8.16856 8.63303 8.20539 8.59046C8.32013 8.45697 8.3712 8.35333 8.43043 8.23329L8.46146 8.17092C8.60605 7.88364 8.48255 7.64121 8.44264 7.56292C8.40988 7.49741 7.82502 6.08586 7.76284 5.93756C7.6133 5.57971 7.41572 5.41309 7.14114 5.41309C7.11566 5.41309 7.14114 5.41309 7.0343 5.41759C6.9042 5.42308 6.19571 5.51635 5.88245 5.71382C5.55026 5.92325 4.98828 6.59084 4.98828 7.76489C4.98828 8.82155 5.65883 9.81923 5.94673 10.1987C5.95389 10.2082 5.96703 10.2277 5.98609 10.2556C7.08864 11.8657 8.46312 13.059 9.85647 13.6157C11.1979 14.1515 11.8331 14.2134 12.1942 14.2134C12.1943 14.2134 12.1943 14.2134 12.1943 14.2134C12.346 14.2134 12.4675 14.2015 12.5746 14.191L12.6426 14.1845C13.106 14.1434 14.1244 13.6157 14.356 12.972C14.5385 12.465 14.5866 11.911 14.4652 11.71C14.382 11.5733 14.2387 11.5045 14.0573 11.4174Z" fill="white"/>
<path d="M9.66864 0.5C4.52285 0.5 0.336434 4.65495 0.336434 9.76207C0.336434 11.4139 0.778492 13.0308 1.61591 14.4459L0.0130636 19.174C-0.0167936 19.2622 0.00541424 19.3597 0.0706188 19.426C0.117687 19.4741 0.181534 19.5 0.246739 19.5C0.271723 19.5 0.296892 19.4962 0.321444 19.4884L5.25158 17.9218C6.6007 18.6426 8.12551 19.0231 9.66871 19.0231C14.814 19.0231 19 14.8686 19 9.76207C19 4.65495 14.814 0.5 9.66864 0.5ZM9.66864 17.0938C8.21656 17.0938 6.81013 16.6745 5.60116 15.8812C5.56051 15.8545 5.51332 15.8408 5.46582 15.8408C5.44071 15.8408 5.41554 15.8446 5.39105 15.8524L2.92136 16.6374L3.71862 14.2853C3.74441 14.2092 3.73151 14.1252 3.68401 14.0603C2.76338 12.8024 2.27672 11.3161 2.27672 9.76207C2.27672 5.71883 5.59271 2.42936 9.66858 2.42936C13.744 2.42936 17.0596 5.71883 17.0596 9.76207C17.0596 13.8048 13.7441 17.0938 9.66864 17.0938Z" fill="white"/>
</g>
<defs>
<clipPath id="clip0_844_1084">
<rect width="19" height="19" fill="white" transform="translate(0 0.5)"/>
</clipPath>
</defs>
</svg>
